M48
METRIC,LZ,000.000
;FILE_FORMAT=3:3
;TYPE=PLATED
;Layer: PTH_Through_Via
;EasyEDA v6.5.54, 2026-02-28 12:46:57
;7e5d5e850e924c198af6209be1a95435,0dc338707f1441f787e5ddacd88fc9c8,10
;Gerber Generator version 0.2
;Holesize 1 = 0.305 mm
T01C0.305
%
G05
G90
T01
X020250Y059513
X014126Y065985
X023333Y074863
X025823Y078881
X022668Y027952
X027600Y030005
X021678Y034868
X021066Y030046
X025793Y063028
X025774Y087937
X011573Y076178
X019389Y084854
X011192Y072695
X015120Y044838
X014238Y028411
X013625Y064724
X023195Y050342
X016314Y048256
X019890Y062610
X024905Y058057
X022192Y041562
X017112Y048374
M30
