M48
METRIC,LZ,000.000
;FILE_FORMAT=3:3
;TYPE=PLATED
;Layer: PTH_Through
;EasyEDA v6.5.54, 2026-02-28 12:46:57
;7e5d5e850e924c198af6209be1a95435,0dc338707f1441f787e5ddacd88fc9c8,10
;Gerber Generator version 0.2
;Holesize 1 = 0.305 mm
T01C0.305
;Holesize 2 = 0.701 mm
T02C0.701
;Holesize 3 = 0.762 mm
T03C0.762
;Holesize 4 = 0.850 mm
T04C0.850
;Holesize 5 = 0.889 mm
T05C0.889
%
G05
G90
T01
X020250Y059513
X014126Y065985
X023333Y074863
X025823Y078881
X022668Y027952
X027600Y030005
X021678Y034868
X021066Y030046
X025793Y063028
X025774Y087937
X011573Y076178
X019389Y084854
X011192Y072695
X015120Y044838
X014238Y028411
X013625Y064724
X023195Y050342
X016314Y048256
X019890Y062610
X024905Y058057
X022192Y041562
X017112Y048374
T02
X010430Y016126G85X010430Y016132
X012430Y016126G85X012430Y016132
X018431Y016253G85X018431Y016259
X020431Y016253G85X020431Y016259
X026432Y016253G85X026432Y016259
X028432Y016253G85X028432Y016259
T03
X027305Y075897
X027305Y079297
T04
X011935Y036576G85X011940Y036576
X011935Y039116G85X011940Y039116
X011935Y041656G85X011940Y041656
X011935Y044196G85X011940Y044196
X011935Y046736G85X011940Y046736
X011935Y049276G85X011940Y049276
X027180Y051816G85X027175Y051816
X027180Y049276G85X027175Y049276
X027180Y046736G85X027175Y046736
X027180Y044196G85X027175Y044196
X027180Y041656G85X027175Y041656
X027180Y039116G85X027175Y039116
X027180Y036576G85X027175Y036576
X011935Y051816G85X011941Y051816
T05
X022098Y079375
X019558Y079375
X017018Y079375
X014478Y079375
X011938Y079375
X009398Y079375
M30
