G04 Layer: TopPasteMaskLayer*
G04 EasyEDA v6.5.54, 2026-02-28 12:46:57*
G04 7e5d5e850e924c198af6209be1a95435,0dc338707f1441f787e5ddacd88fc9c8,10*
G04 Gerber Generator version 0.2*
G04 Scale: 100 percent, Rotated: No, Reflected: No *
G04 Dimensions in millimeters *
G04 leading zeros omitted , absolute positions ,4 integer and 5 decimal *
%FSLAX45Y45*%
%MOMM*%

%ADD10R,1.2500X0.7000*%
%ADD11R,0.8000X0.9000*%
%ADD12R,0.0103X0.9000*%

%LPD*%
G36*
X1561693Y2951886D02*
G01*
X1556715Y2946908D01*
X1556715Y2818892D01*
X1561693Y2813913D01*
X1676704Y2813913D01*
X1681683Y2818892D01*
X1681225Y2860903D01*
X1637182Y2860903D01*
X1637182Y2905912D01*
X1682191Y2905912D01*
X1681683Y2946908D01*
X1676704Y2951886D01*
G37*
G36*
X1777695Y2951886D02*
G01*
X1772716Y2946908D01*
X1773174Y2904896D01*
X1817217Y2904896D01*
X1817217Y2859887D01*
X1772208Y2859887D01*
X1772716Y2818892D01*
X1777695Y2813913D01*
X1892706Y2813913D01*
X1897684Y2818892D01*
X1897684Y2946908D01*
X1892706Y2951886D01*
G37*
G36*
X939393Y2926486D02*
G01*
X934415Y2921508D01*
X934415Y2793492D01*
X939393Y2788513D01*
X1054404Y2788513D01*
X1059383Y2793492D01*
X1058926Y2835503D01*
X1014882Y2835503D01*
X1014882Y2880512D01*
X1059891Y2880512D01*
X1059383Y2921508D01*
X1054404Y2926486D01*
G37*
G36*
X1155395Y2926486D02*
G01*
X1150416Y2921508D01*
X1150874Y2879496D01*
X1194917Y2879496D01*
X1194917Y2834487D01*
X1149908Y2834487D01*
X1150416Y2793492D01*
X1155395Y2788513D01*
X1270406Y2788513D01*
X1275384Y2793492D01*
X1275384Y2921508D01*
X1270406Y2926486D01*
G37*
G36*
X1028801Y6660286D02*
G01*
X1023772Y6655308D01*
X1023772Y6527292D01*
X1028801Y6522313D01*
X1143812Y6522313D01*
X1148791Y6527292D01*
X1148283Y6569303D01*
X1104290Y6569303D01*
X1104290Y6614312D01*
X1149299Y6614312D01*
X1148791Y6655308D01*
X1143812Y6660286D01*
G37*
G36*
X1243787Y6660286D02*
G01*
X1238808Y6655308D01*
X1239316Y6614312D01*
X1283309Y6614312D01*
X1283309Y6569303D01*
X1238808Y6569303D01*
X1238808Y6527292D01*
X1243787Y6522313D01*
X1358798Y6522313D01*
X1363776Y6527292D01*
X1363776Y6655308D01*
X1358798Y6660286D01*
G37*
G36*
X1841601Y7536586D02*
G01*
X1836572Y7531608D01*
X1836572Y7403592D01*
X1841601Y7398613D01*
X1956612Y7398613D01*
X1961591Y7403592D01*
X1961083Y7445603D01*
X1917090Y7445603D01*
X1917090Y7490612D01*
X1962099Y7490612D01*
X1961591Y7531608D01*
X1956612Y7536586D01*
G37*
G36*
X2056587Y7536586D02*
G01*
X2051608Y7531608D01*
X2052116Y7490612D01*
X2096109Y7490612D01*
X2096109Y7445603D01*
X2051608Y7445603D01*
X2051608Y7403592D01*
X2056587Y7398613D01*
X2171598Y7398613D01*
X2176576Y7403592D01*
X2176576Y7531608D01*
X2171598Y7536586D01*
G37*
G36*
X1092301Y7549286D02*
G01*
X1087272Y7544308D01*
X1087272Y7416292D01*
X1092301Y7411313D01*
X1207312Y7411313D01*
X1212291Y7416292D01*
X1211783Y7458303D01*
X1167790Y7458303D01*
X1167790Y7503312D01*
X1212799Y7503312D01*
X1212291Y7544308D01*
X1207312Y7549286D01*
G37*
G36*
X1307287Y7549286D02*
G01*
X1302308Y7544308D01*
X1302816Y7503312D01*
X1346809Y7503312D01*
X1346809Y7458303D01*
X1302308Y7458303D01*
X1302308Y7416292D01*
X1307287Y7411313D01*
X1422298Y7411313D01*
X1427276Y7416292D01*
X1427276Y7544308D01*
X1422298Y7549286D01*
G37*
G36*
X1803501Y7066686D02*
G01*
X1798472Y7061708D01*
X1798472Y6933692D01*
X1803501Y6928713D01*
X1918512Y6928713D01*
X1923491Y6933692D01*
X1922983Y6975703D01*
X1878990Y6975703D01*
X1878990Y7020712D01*
X1923999Y7020712D01*
X1923491Y7061708D01*
X1918512Y7066686D01*
G37*
G36*
X2018487Y7066686D02*
G01*
X2013508Y7061708D01*
X2014016Y7020712D01*
X2058009Y7020712D01*
X2058009Y6975703D01*
X2013508Y6975703D01*
X2013508Y6933692D01*
X2018487Y6928713D01*
X2133498Y6928713D01*
X2138476Y6933692D01*
X2138476Y7061708D01*
X2133498Y7066686D01*
G37*
G36*
X1054201Y7079386D02*
G01*
X1049172Y7074408D01*
X1049172Y6946392D01*
X1054201Y6941413D01*
X1169212Y6941413D01*
X1174191Y6946392D01*
X1173683Y6988403D01*
X1129690Y6988403D01*
X1129690Y7033412D01*
X1174699Y7033412D01*
X1174191Y7074408D01*
X1169212Y7079386D01*
G37*
G36*
X1269187Y7079386D02*
G01*
X1264208Y7074408D01*
X1264716Y7033412D01*
X1308709Y7033412D01*
X1308709Y6988403D01*
X1264208Y6988403D01*
X1264208Y6946392D01*
X1269187Y6941413D01*
X1384198Y6941413D01*
X1389176Y6946392D01*
X1389176Y7074408D01*
X1384198Y7079386D01*
G37*
G36*
X2514701Y6634886D02*
G01*
X2509672Y6629908D01*
X2509672Y6501892D01*
X2514701Y6496913D01*
X2629712Y6496913D01*
X2634691Y6501892D01*
X2634183Y6543903D01*
X2590190Y6543903D01*
X2590190Y6588912D01*
X2635199Y6588912D01*
X2634691Y6629908D01*
X2629712Y6634886D01*
G37*
G36*
X2729687Y6634886D02*
G01*
X2724708Y6629908D01*
X2725216Y6588912D01*
X2769209Y6588912D01*
X2769209Y6543903D01*
X2724708Y6543903D01*
X2724708Y6501892D01*
X2729687Y6496913D01*
X2844698Y6496913D01*
X2849676Y6501892D01*
X2849676Y6629908D01*
X2844698Y6634886D01*
G37*
G36*
X1219301Y2481986D02*
G01*
X1214272Y2477008D01*
X1214272Y2348992D01*
X1219301Y2344013D01*
X1334312Y2344013D01*
X1339291Y2348992D01*
X1338783Y2391003D01*
X1294790Y2391003D01*
X1294790Y2436012D01*
X1339799Y2436012D01*
X1339291Y2477008D01*
X1334312Y2481986D01*
G37*
G36*
X1434287Y2481986D02*
G01*
X1429308Y2477008D01*
X1429816Y2436012D01*
X1473809Y2436012D01*
X1473809Y2391003D01*
X1429308Y2391003D01*
X1429308Y2348992D01*
X1434287Y2344013D01*
X1549298Y2344013D01*
X1554276Y2348992D01*
X1554276Y2477008D01*
X1549298Y2481986D01*
G37*
G36*
X2197201Y2469286D02*
G01*
X2192172Y2464308D01*
X2192172Y2336292D01*
X2197201Y2331313D01*
X2312212Y2331313D01*
X2317191Y2336292D01*
X2316683Y2378303D01*
X2272690Y2378303D01*
X2272690Y2423312D01*
X2317699Y2423312D01*
X2317191Y2464308D01*
X2312212Y2469286D01*
G37*
G36*
X2412187Y2469286D02*
G01*
X2407208Y2464308D01*
X2407716Y2423312D01*
X2451709Y2423312D01*
X2451709Y2378303D01*
X2407208Y2378303D01*
X2407208Y2336292D01*
X2412187Y2331313D01*
X2527198Y2331313D01*
X2532176Y2336292D01*
X2532176Y2464308D01*
X2527198Y2469286D01*
G37*
G36*
X2578201Y7180986D02*
G01*
X2573172Y7176008D01*
X2573172Y7047992D01*
X2578201Y7043013D01*
X2693212Y7043013D01*
X2698191Y7047992D01*
X2697683Y7090003D01*
X2653690Y7090003D01*
X2653690Y7135012D01*
X2698699Y7135012D01*
X2698191Y7176008D01*
X2693212Y7180986D01*
G37*
G36*
X2793187Y7180986D02*
G01*
X2788208Y7176008D01*
X2788716Y7135012D01*
X2832709Y7135012D01*
X2832709Y7090003D01*
X2788208Y7090003D01*
X2788208Y7047992D01*
X2793187Y7043013D01*
X2908198Y7043013D01*
X2913176Y7047992D01*
X2913176Y7176008D01*
X2908198Y7180986D01*
G37*
G36*
X1718005Y6092494D02*
G01*
X1718005Y5972505D01*
X1837994Y5972505D01*
X1837994Y6092494D01*
G37*
G36*
X1690674Y5912510D02*
G01*
X1690674Y5852515D01*
X1715668Y5852515D01*
X1715668Y5912510D01*
G37*
G36*
X1740662Y5912510D02*
G01*
X1740662Y5852515D01*
X1765655Y5852515D01*
X1765655Y5912510D01*
G37*
G36*
X1790649Y5912510D02*
G01*
X1790649Y5852515D01*
X1815642Y5852515D01*
X1815642Y5912510D01*
G37*
G36*
X1840636Y5912510D02*
G01*
X1840636Y5852515D01*
X1865630Y5852515D01*
X1865630Y5912510D01*
G37*
G36*
X1897989Y5970219D02*
G01*
X1897989Y5945225D01*
X1957984Y5945225D01*
X1957984Y5970219D01*
G37*
G36*
X1897989Y6020206D02*
G01*
X1897989Y5995212D01*
X1957984Y5995212D01*
X1957984Y6020206D01*
G37*
G36*
X1897989Y6070193D02*
G01*
X1897989Y6045200D01*
X1957984Y6045200D01*
X1957984Y6070193D01*
G37*
G36*
X1897989Y6120180D02*
G01*
X1897989Y6095187D01*
X1957984Y6095187D01*
X1957984Y6120180D01*
G37*
G36*
X1840484Y6212484D02*
G01*
X1840484Y6152489D01*
X1865477Y6152489D01*
X1865477Y6212484D01*
G37*
G36*
X1790496Y6212484D02*
G01*
X1790496Y6152489D01*
X1815490Y6152489D01*
X1815490Y6212484D01*
G37*
G36*
X1740509Y6212484D02*
G01*
X1740509Y6152489D01*
X1765503Y6152489D01*
X1765503Y6212484D01*
G37*
G36*
X1690674Y6212484D02*
G01*
X1690674Y6152489D01*
X1715668Y6152489D01*
X1715668Y6212484D01*
G37*
G36*
X1598015Y6120180D02*
G01*
X1598015Y6095187D01*
X1658010Y6095187D01*
X1658010Y6120180D01*
G37*
G36*
X1598015Y6070193D02*
G01*
X1598015Y6045200D01*
X1658010Y6045200D01*
X1658010Y6070193D01*
G37*
G36*
X1598015Y6020206D02*
G01*
X1598015Y5995212D01*
X1658010Y5995212D01*
X1658010Y6020206D01*
G37*
G36*
X1598015Y5970219D02*
G01*
X1598015Y5945225D01*
X1658010Y5945225D01*
X1658010Y5970219D01*
G37*
G36*
X2505405Y6092494D02*
G01*
X2505405Y5972505D01*
X2625394Y5972505D01*
X2625394Y6092494D01*
G37*
G36*
X2478074Y5912510D02*
G01*
X2478074Y5852515D01*
X2503068Y5852515D01*
X2503068Y5912510D01*
G37*
G36*
X2528062Y5912510D02*
G01*
X2528062Y5852515D01*
X2553055Y5852515D01*
X2553055Y5912510D01*
G37*
G36*
X2578049Y5912510D02*
G01*
X2578049Y5852515D01*
X2603042Y5852515D01*
X2603042Y5912510D01*
G37*
G36*
X2628036Y5912510D02*
G01*
X2628036Y5852515D01*
X2653030Y5852515D01*
X2653030Y5912510D01*
G37*
G36*
X2685389Y5970219D02*
G01*
X2685389Y5945225D01*
X2745384Y5945225D01*
X2745384Y5970219D01*
G37*
G36*
X2685389Y6020206D02*
G01*
X2685389Y5995212D01*
X2745384Y5995212D01*
X2745384Y6020206D01*
G37*
G36*
X2685389Y6070193D02*
G01*
X2685389Y6045200D01*
X2745384Y6045200D01*
X2745384Y6070193D01*
G37*
G36*
X2685389Y6120180D02*
G01*
X2685389Y6095187D01*
X2745384Y6095187D01*
X2745384Y6120180D01*
G37*
G36*
X2627884Y6212484D02*
G01*
X2627884Y6152489D01*
X2652877Y6152489D01*
X2652877Y6212484D01*
G37*
G36*
X2577896Y6212484D02*
G01*
X2577896Y6152489D01*
X2602890Y6152489D01*
X2602890Y6212484D01*
G37*
G36*
X2527909Y6212484D02*
G01*
X2527909Y6152489D01*
X2552903Y6152489D01*
X2552903Y6212484D01*
G37*
G36*
X2478074Y6212484D02*
G01*
X2478074Y6152489D01*
X2503068Y6152489D01*
X2503068Y6212484D01*
G37*
G36*
X2385415Y6120180D02*
G01*
X2385415Y6095187D01*
X2445410Y6095187D01*
X2445410Y6120180D01*
G37*
G36*
X2385415Y6070193D02*
G01*
X2385415Y6045200D01*
X2445410Y6045200D01*
X2445410Y6070193D01*
G37*
G36*
X2385415Y6020206D02*
G01*
X2385415Y5995212D01*
X2445410Y5995212D01*
X2445410Y6020206D01*
G37*
G36*
X2385415Y5970219D02*
G01*
X2385415Y5945225D01*
X2445410Y5945225D01*
X2445410Y5970219D01*
G37*
D10*
G01*
X1242999Y5874004D03*
G01*
X1242999Y6063995D03*
G01*
X1043000Y5969000D03*
G36*
X1200150Y5262879D02*
G01*
X1204061Y5262778D01*
X1207973Y5262473D01*
X1211859Y5261965D01*
X1215720Y5261254D01*
X1219530Y5260339D01*
X1223289Y5259222D01*
X1226997Y5257901D01*
X1230629Y5256403D01*
X1234160Y5254726D01*
X1237614Y5252846D01*
X1240967Y5250789D01*
X1244193Y5248579D01*
X1247292Y5246192D01*
X1250289Y5243626D01*
X1253134Y5240934D01*
X1255826Y5238089D01*
X1258392Y5235117D01*
X1260779Y5231993D01*
X1262989Y5228767D01*
X1265046Y5225414D01*
X1266901Y5221960D01*
X1268603Y5218429D01*
X1270101Y5214797D01*
X1271422Y5211114D01*
X1272514Y5207330D01*
X1273429Y5203520D01*
X1274165Y5199659D01*
X1274673Y5195773D01*
X1274978Y5191861D01*
X1275079Y5187950D01*
X1275079Y5175250D01*
X1274978Y5171338D01*
X1274673Y5167426D01*
X1274140Y5163515D01*
X1273429Y5159679D01*
X1272514Y5155869D01*
X1271396Y5152085D01*
X1270101Y5148402D01*
X1268603Y5144770D01*
X1266901Y5141239D01*
X1265021Y5137785D01*
X1262989Y5134432D01*
X1260754Y5131206D01*
X1258366Y5128107D01*
X1255826Y5125110D01*
X1253134Y5122265D01*
X1250289Y5119573D01*
X1247292Y5117033D01*
X1244193Y5114645D01*
X1240942Y5112410D01*
X1237614Y5110378D01*
X1234160Y5108498D01*
X1230629Y5106796D01*
X1226997Y5105298D01*
X1223289Y5104003D01*
X1219530Y5102885D01*
X1215720Y5101970D01*
X1211859Y5101259D01*
X1207973Y5100751D01*
X1204061Y5100421D01*
X1200150Y5100345D01*
X1011681Y5100345D01*
X1011681Y5262879D01*
G37*
G36*
X1200150Y5008879D02*
G01*
X1204061Y5008778D01*
X1207973Y5008473D01*
X1211859Y5007965D01*
X1215720Y5007254D01*
X1219530Y5006339D01*
X1223289Y5005222D01*
X1226997Y5003901D01*
X1230629Y5002403D01*
X1234160Y5000726D01*
X1237614Y4998846D01*
X1240967Y4996789D01*
X1244193Y4994579D01*
X1247292Y4992192D01*
X1250289Y4989626D01*
X1253134Y4986934D01*
X1255826Y4984089D01*
X1258392Y4981117D01*
X1260779Y4977993D01*
X1262989Y4974767D01*
X1265046Y4971414D01*
X1266901Y4967960D01*
X1268603Y4964429D01*
X1270101Y4960797D01*
X1271422Y4957114D01*
X1272514Y4953330D01*
X1273429Y4949520D01*
X1274165Y4945659D01*
X1274673Y4941773D01*
X1274978Y4937861D01*
X1275079Y4933950D01*
X1275079Y4921250D01*
X1274978Y4917338D01*
X1274673Y4913426D01*
X1274140Y4909515D01*
X1273429Y4905679D01*
X1272514Y4901869D01*
X1271396Y4898085D01*
X1270101Y4894402D01*
X1268603Y4890770D01*
X1266901Y4887239D01*
X1265021Y4883785D01*
X1262989Y4880432D01*
X1260754Y4877206D01*
X1258366Y4874107D01*
X1255826Y4871110D01*
X1253134Y4868265D01*
X1250289Y4865573D01*
X1247292Y4863033D01*
X1244193Y4860645D01*
X1240942Y4858410D01*
X1237614Y4856378D01*
X1234160Y4854498D01*
X1230629Y4852796D01*
X1226997Y4851298D01*
X1223289Y4850003D01*
X1219530Y4848885D01*
X1215720Y4847970D01*
X1211859Y4847259D01*
X1207973Y4846751D01*
X1204061Y4846421D01*
X1200150Y4846345D01*
X1011681Y4846345D01*
X1011681Y5008879D01*
G37*
G36*
X1200150Y4754879D02*
G01*
X1204061Y4754778D01*
X1207973Y4754473D01*
X1211859Y4753965D01*
X1215720Y4753254D01*
X1219530Y4752339D01*
X1223289Y4751222D01*
X1226997Y4749901D01*
X1230629Y4748403D01*
X1234160Y4746726D01*
X1237614Y4744846D01*
X1240967Y4742789D01*
X1244193Y4740579D01*
X1247292Y4738192D01*
X1250289Y4735626D01*
X1253134Y4732934D01*
X1255826Y4730089D01*
X1258392Y4727117D01*
X1260779Y4723993D01*
X1262989Y4720767D01*
X1265046Y4717414D01*
X1266901Y4713960D01*
X1268603Y4710429D01*
X1270101Y4706797D01*
X1271422Y4703114D01*
X1272514Y4699330D01*
X1273429Y4695520D01*
X1274165Y4691659D01*
X1274673Y4687773D01*
X1274978Y4683861D01*
X1275079Y4679950D01*
X1275079Y4667250D01*
X1274978Y4663338D01*
X1274673Y4659426D01*
X1274140Y4655515D01*
X1273429Y4651679D01*
X1272514Y4647869D01*
X1271396Y4644085D01*
X1270101Y4640402D01*
X1268603Y4636770D01*
X1266901Y4633239D01*
X1265021Y4629785D01*
X1262989Y4626432D01*
X1260754Y4623206D01*
X1258366Y4620107D01*
X1255826Y4617110D01*
X1253134Y4614265D01*
X1250289Y4611573D01*
X1247292Y4609033D01*
X1244193Y4606645D01*
X1240942Y4604410D01*
X1237614Y4602378D01*
X1234160Y4600498D01*
X1230629Y4598796D01*
X1226997Y4597298D01*
X1223289Y4596003D01*
X1219530Y4594885D01*
X1215720Y4593970D01*
X1211859Y4593259D01*
X1207973Y4592751D01*
X1204061Y4592421D01*
X1200150Y4592345D01*
X1011681Y4592345D01*
X1011681Y4754879D01*
G37*
G36*
X1200150Y4500879D02*
G01*
X1204061Y4500778D01*
X1207973Y4500473D01*
X1211859Y4499965D01*
X1215720Y4499254D01*
X1219530Y4498339D01*
X1223289Y4497222D01*
X1226997Y4495901D01*
X1230629Y4494403D01*
X1234160Y4492726D01*
X1237614Y4490846D01*
X1240967Y4488789D01*
X1244193Y4486579D01*
X1247292Y4484192D01*
X1250289Y4481626D01*
X1253134Y4478934D01*
X1255826Y4476089D01*
X1258392Y4473117D01*
X1260779Y4469993D01*
X1262989Y4466767D01*
X1265046Y4463414D01*
X1266901Y4459960D01*
X1268603Y4456429D01*
X1270101Y4452797D01*
X1271422Y4449114D01*
X1272514Y4445330D01*
X1273429Y4441520D01*
X1274165Y4437659D01*
X1274673Y4433773D01*
X1274978Y4429861D01*
X1275079Y4425950D01*
X1275079Y4413250D01*
X1274978Y4409338D01*
X1274673Y4405426D01*
X1274140Y4401515D01*
X1273429Y4397679D01*
X1272514Y4393869D01*
X1271396Y4390085D01*
X1270101Y4386402D01*
X1268603Y4382770D01*
X1266901Y4379239D01*
X1265021Y4375785D01*
X1262989Y4372432D01*
X1260754Y4369206D01*
X1258366Y4366107D01*
X1255826Y4363110D01*
X1253134Y4360265D01*
X1250289Y4357573D01*
X1247292Y4355033D01*
X1244193Y4352645D01*
X1240942Y4350410D01*
X1237614Y4348378D01*
X1234160Y4346498D01*
X1230629Y4344796D01*
X1226997Y4343298D01*
X1223289Y4342003D01*
X1219530Y4340885D01*
X1215720Y4339970D01*
X1211859Y4339259D01*
X1207973Y4338751D01*
X1204061Y4338421D01*
X1200150Y4338345D01*
X1011681Y4338345D01*
X1011681Y4500879D01*
G37*
G36*
X1200150Y4246879D02*
G01*
X1204061Y4246778D01*
X1207973Y4246473D01*
X1211859Y4245965D01*
X1215720Y4245254D01*
X1219530Y4244339D01*
X1223289Y4243222D01*
X1226997Y4241901D01*
X1230629Y4240403D01*
X1234160Y4238726D01*
X1237614Y4236846D01*
X1240967Y4234789D01*
X1244193Y4232579D01*
X1247292Y4230192D01*
X1250289Y4227626D01*
X1253134Y4224934D01*
X1255826Y4222089D01*
X1258392Y4219117D01*
X1260779Y4215993D01*
X1262989Y4212767D01*
X1265046Y4209414D01*
X1266901Y4205960D01*
X1268603Y4202429D01*
X1270101Y4198797D01*
X1271422Y4195114D01*
X1272514Y4191330D01*
X1273429Y4187520D01*
X1274165Y4183659D01*
X1274673Y4179773D01*
X1274978Y4175861D01*
X1275079Y4171950D01*
X1275079Y4159250D01*
X1274978Y4155338D01*
X1274673Y4151426D01*
X1274140Y4147515D01*
X1273429Y4143679D01*
X1272514Y4139869D01*
X1271396Y4136085D01*
X1270101Y4132402D01*
X1268603Y4128770D01*
X1266901Y4125239D01*
X1265021Y4121785D01*
X1262989Y4118432D01*
X1260754Y4115206D01*
X1258366Y4112107D01*
X1255826Y4109110D01*
X1253134Y4106265D01*
X1250289Y4103573D01*
X1247292Y4101033D01*
X1244193Y4098645D01*
X1240942Y4096410D01*
X1237614Y4094378D01*
X1234160Y4092498D01*
X1230629Y4090796D01*
X1226997Y4089298D01*
X1223289Y4088003D01*
X1219530Y4086885D01*
X1215720Y4085970D01*
X1211859Y4085259D01*
X1207973Y4084751D01*
X1204061Y4084421D01*
X1200150Y4084345D01*
X1011681Y4084345D01*
X1011681Y4246879D01*
G37*
G36*
X1200150Y3992879D02*
G01*
X1204061Y3992778D01*
X1207973Y3992473D01*
X1211859Y3991965D01*
X1215720Y3991254D01*
X1219530Y3990339D01*
X1223289Y3989222D01*
X1226997Y3987901D01*
X1230629Y3986403D01*
X1234160Y3984726D01*
X1237614Y3982846D01*
X1240967Y3980789D01*
X1244193Y3978579D01*
X1247292Y3976192D01*
X1250289Y3973626D01*
X1253134Y3970934D01*
X1255826Y3968089D01*
X1258392Y3965117D01*
X1260779Y3961993D01*
X1262989Y3958767D01*
X1265046Y3955414D01*
X1266901Y3951960D01*
X1268603Y3948429D01*
X1270101Y3944797D01*
X1271422Y3941114D01*
X1272514Y3937330D01*
X1273429Y3933520D01*
X1274165Y3929659D01*
X1274673Y3925773D01*
X1274978Y3921861D01*
X1275079Y3917950D01*
X1275079Y3905250D01*
X1274978Y3901338D01*
X1274673Y3897426D01*
X1274140Y3893515D01*
X1273429Y3889679D01*
X1272514Y3885869D01*
X1271396Y3882085D01*
X1270101Y3878402D01*
X1268603Y3874770D01*
X1266901Y3871239D01*
X1265021Y3867785D01*
X1262989Y3864432D01*
X1260754Y3861206D01*
X1258366Y3858107D01*
X1255826Y3855110D01*
X1253134Y3852265D01*
X1250289Y3849573D01*
X1247292Y3847033D01*
X1244193Y3844645D01*
X1240942Y3842410D01*
X1237614Y3840378D01*
X1234160Y3838498D01*
X1230629Y3836796D01*
X1226997Y3835298D01*
X1223289Y3834003D01*
X1219530Y3832885D01*
X1215720Y3831970D01*
X1211859Y3831259D01*
X1207973Y3830751D01*
X1204061Y3830421D01*
X1200150Y3830345D01*
X1011681Y3830345D01*
X1011681Y3992879D01*
G37*
G36*
X1200150Y3738879D02*
G01*
X1204061Y3738778D01*
X1207973Y3738473D01*
X1211859Y3737965D01*
X1215720Y3737254D01*
X1219530Y3736339D01*
X1223289Y3735222D01*
X1226997Y3733901D01*
X1230629Y3732403D01*
X1234160Y3730726D01*
X1237614Y3728846D01*
X1240967Y3726789D01*
X1244193Y3724579D01*
X1247292Y3722192D01*
X1250289Y3719626D01*
X1253134Y3716934D01*
X1255826Y3714089D01*
X1258392Y3711117D01*
X1260779Y3707993D01*
X1262989Y3704767D01*
X1265046Y3701414D01*
X1266901Y3697960D01*
X1268603Y3694429D01*
X1270101Y3690797D01*
X1271422Y3687114D01*
X1272514Y3683330D01*
X1273429Y3679520D01*
X1274165Y3675659D01*
X1274673Y3671773D01*
X1274978Y3667861D01*
X1275079Y3663950D01*
X1275079Y3651250D01*
X1274978Y3647338D01*
X1274673Y3643426D01*
X1274140Y3639515D01*
X1273429Y3635679D01*
X1272514Y3631869D01*
X1271396Y3628085D01*
X1270101Y3624402D01*
X1268603Y3620770D01*
X1266901Y3617239D01*
X1265021Y3613785D01*
X1262989Y3610432D01*
X1260754Y3607206D01*
X1258366Y3604107D01*
X1255826Y3601110D01*
X1253134Y3598265D01*
X1250289Y3595573D01*
X1247292Y3593033D01*
X1244193Y3590645D01*
X1240942Y3588410D01*
X1237614Y3586378D01*
X1234160Y3584498D01*
X1230629Y3582796D01*
X1226997Y3581298D01*
X1223289Y3580003D01*
X1219530Y3578885D01*
X1215720Y3577970D01*
X1211859Y3577259D01*
X1207973Y3576751D01*
X1204061Y3576421D01*
X1200150Y3576345D01*
X1011681Y3576345D01*
X1011681Y3738879D01*
G37*
G36*
X2711450Y3576345D02*
G01*
X2707513Y3576421D01*
X2703601Y3576751D01*
X2699715Y3577259D01*
X2695854Y3577970D01*
X2692044Y3578885D01*
X2688285Y3580003D01*
X2684602Y3581298D01*
X2680970Y3582796D01*
X2677439Y3584498D01*
X2673984Y3586378D01*
X2670632Y3588410D01*
X2667406Y3590645D01*
X2664282Y3593033D01*
X2661310Y3595573D01*
X2658465Y3598265D01*
X2655747Y3601110D01*
X2653207Y3604107D01*
X2650820Y3607206D01*
X2648610Y3610432D01*
X2646552Y3613785D01*
X2644673Y3617239D01*
X2642997Y3620770D01*
X2641498Y3624402D01*
X2640177Y3628085D01*
X2639059Y3631869D01*
X2638145Y3635679D01*
X2637434Y3639515D01*
X2636926Y3643426D01*
X2636621Y3647338D01*
X2636494Y3651250D01*
X2636494Y3663950D01*
X2636596Y3667861D01*
X2636900Y3671773D01*
X2637434Y3675684D01*
X2638145Y3679520D01*
X2639059Y3683330D01*
X2640177Y3687114D01*
X2641472Y3690797D01*
X2642971Y3694429D01*
X2644673Y3697960D01*
X2646527Y3701414D01*
X2648584Y3704767D01*
X2650820Y3707993D01*
X2653207Y3711117D01*
X2655747Y3714089D01*
X2658440Y3716934D01*
X2661284Y3719652D01*
X2664282Y3722192D01*
X2667381Y3724579D01*
X2670632Y3726789D01*
X2673984Y3728846D01*
X2677413Y3730726D01*
X2680970Y3732403D01*
X2684576Y3733901D01*
X2688285Y3735222D01*
X2692044Y3736339D01*
X2695854Y3737254D01*
X2699715Y3737965D01*
X2703601Y3738473D01*
X2707513Y3738778D01*
X2711450Y3738879D01*
X2899892Y3738879D01*
X2899892Y3576345D01*
G37*
G36*
X2711450Y3830345D02*
G01*
X2707513Y3830421D01*
X2703601Y3830751D01*
X2699715Y3831259D01*
X2695854Y3831970D01*
X2692044Y3832885D01*
X2688285Y3834003D01*
X2684602Y3835298D01*
X2680970Y3836796D01*
X2677439Y3838498D01*
X2673984Y3840378D01*
X2670632Y3842410D01*
X2667406Y3844645D01*
X2664282Y3847033D01*
X2661310Y3849573D01*
X2658465Y3852265D01*
X2655747Y3855110D01*
X2653207Y3858107D01*
X2650820Y3861206D01*
X2648610Y3864432D01*
X2646552Y3867785D01*
X2644673Y3871239D01*
X2642997Y3874770D01*
X2641498Y3878402D01*
X2640177Y3882085D01*
X2639059Y3885869D01*
X2638145Y3889679D01*
X2637434Y3893515D01*
X2636926Y3897426D01*
X2636621Y3901338D01*
X2636494Y3905250D01*
X2636494Y3917950D01*
X2636596Y3921861D01*
X2636900Y3925773D01*
X2637434Y3929684D01*
X2638145Y3933520D01*
X2639059Y3937330D01*
X2640177Y3941114D01*
X2641472Y3944797D01*
X2642971Y3948429D01*
X2644673Y3951960D01*
X2646527Y3955414D01*
X2648584Y3958767D01*
X2650820Y3961993D01*
X2653207Y3965117D01*
X2655747Y3968089D01*
X2658440Y3970934D01*
X2661284Y3973652D01*
X2664282Y3976192D01*
X2667381Y3978579D01*
X2670632Y3980789D01*
X2673984Y3982846D01*
X2677413Y3984726D01*
X2680970Y3986403D01*
X2684576Y3987901D01*
X2688285Y3989222D01*
X2692044Y3990339D01*
X2695854Y3991254D01*
X2699715Y3991965D01*
X2703601Y3992473D01*
X2707513Y3992778D01*
X2711450Y3992879D01*
X2899892Y3992879D01*
X2899892Y3830345D01*
G37*
G36*
X2711450Y4084345D02*
G01*
X2707513Y4084421D01*
X2703601Y4084751D01*
X2699715Y4085259D01*
X2695854Y4085970D01*
X2692044Y4086885D01*
X2688285Y4088003D01*
X2684602Y4089298D01*
X2680970Y4090796D01*
X2677439Y4092498D01*
X2673984Y4094378D01*
X2670632Y4096410D01*
X2667406Y4098645D01*
X2664282Y4101033D01*
X2661310Y4103573D01*
X2658465Y4106265D01*
X2655747Y4109110D01*
X2653207Y4112107D01*
X2650820Y4115206D01*
X2648610Y4118432D01*
X2646552Y4121785D01*
X2644673Y4125239D01*
X2642997Y4128770D01*
X2641498Y4132402D01*
X2640177Y4136085D01*
X2639059Y4139869D01*
X2638145Y4143679D01*
X2637434Y4147515D01*
X2636926Y4151426D01*
X2636621Y4155338D01*
X2636494Y4159250D01*
X2636494Y4171950D01*
X2636596Y4175861D01*
X2636900Y4179773D01*
X2637434Y4183684D01*
X2638145Y4187520D01*
X2639059Y4191330D01*
X2640177Y4195114D01*
X2641472Y4198797D01*
X2642971Y4202429D01*
X2644673Y4205960D01*
X2646527Y4209414D01*
X2648584Y4212767D01*
X2650820Y4215993D01*
X2653207Y4219117D01*
X2655747Y4222089D01*
X2658440Y4224934D01*
X2661284Y4227652D01*
X2664282Y4230192D01*
X2667381Y4232579D01*
X2670632Y4234789D01*
X2673984Y4236846D01*
X2677413Y4238726D01*
X2680970Y4240403D01*
X2684576Y4241901D01*
X2688285Y4243222D01*
X2692044Y4244339D01*
X2695854Y4245254D01*
X2699715Y4245965D01*
X2703601Y4246473D01*
X2707513Y4246778D01*
X2711450Y4246879D01*
X2899892Y4246879D01*
X2899892Y4084345D01*
G37*
G36*
X2711450Y4338345D02*
G01*
X2707513Y4338421D01*
X2703601Y4338751D01*
X2699715Y4339259D01*
X2695854Y4339970D01*
X2692044Y4340885D01*
X2688285Y4342003D01*
X2684602Y4343298D01*
X2680970Y4344796D01*
X2677439Y4346498D01*
X2673984Y4348378D01*
X2670632Y4350410D01*
X2667406Y4352645D01*
X2664282Y4355033D01*
X2661310Y4357573D01*
X2658465Y4360265D01*
X2655747Y4363110D01*
X2653207Y4366107D01*
X2650820Y4369206D01*
X2648610Y4372432D01*
X2646552Y4375785D01*
X2644673Y4379239D01*
X2642997Y4382770D01*
X2641498Y4386402D01*
X2640177Y4390085D01*
X2639059Y4393869D01*
X2638145Y4397679D01*
X2637434Y4401515D01*
X2636926Y4405426D01*
X2636621Y4409338D01*
X2636494Y4413250D01*
X2636494Y4425950D01*
X2636596Y4429861D01*
X2636900Y4433773D01*
X2637434Y4437684D01*
X2638145Y4441520D01*
X2639059Y4445330D01*
X2640177Y4449114D01*
X2641472Y4452797D01*
X2642971Y4456429D01*
X2644673Y4459960D01*
X2646527Y4463414D01*
X2648584Y4466767D01*
X2650820Y4469993D01*
X2653207Y4473117D01*
X2655747Y4476089D01*
X2658440Y4478934D01*
X2661284Y4481652D01*
X2664282Y4484192D01*
X2667381Y4486579D01*
X2670632Y4488789D01*
X2673984Y4490846D01*
X2677413Y4492726D01*
X2680970Y4494403D01*
X2684576Y4495901D01*
X2688285Y4497222D01*
X2692044Y4498339D01*
X2695854Y4499254D01*
X2699715Y4499965D01*
X2703601Y4500473D01*
X2707513Y4500778D01*
X2711450Y4500879D01*
X2899892Y4500879D01*
X2899892Y4338345D01*
G37*
G36*
X2711450Y4592345D02*
G01*
X2707513Y4592421D01*
X2703601Y4592751D01*
X2699715Y4593259D01*
X2695854Y4593970D01*
X2692044Y4594885D01*
X2688285Y4596003D01*
X2684602Y4597298D01*
X2680970Y4598796D01*
X2677439Y4600498D01*
X2673984Y4602378D01*
X2670632Y4604410D01*
X2667406Y4606645D01*
X2664282Y4609033D01*
X2661310Y4611573D01*
X2658465Y4614265D01*
X2655747Y4617110D01*
X2653207Y4620107D01*
X2650820Y4623206D01*
X2648610Y4626432D01*
X2646552Y4629785D01*
X2644673Y4633239D01*
X2642997Y4636770D01*
X2641498Y4640402D01*
X2640177Y4644085D01*
X2639059Y4647869D01*
X2638145Y4651679D01*
X2637434Y4655515D01*
X2636926Y4659426D01*
X2636621Y4663338D01*
X2636494Y4667250D01*
X2636494Y4679950D01*
X2636596Y4683861D01*
X2636900Y4687773D01*
X2637434Y4691684D01*
X2638145Y4695520D01*
X2639059Y4699330D01*
X2640177Y4703114D01*
X2641472Y4706797D01*
X2642971Y4710429D01*
X2644673Y4713960D01*
X2646527Y4717414D01*
X2648584Y4720767D01*
X2650820Y4723993D01*
X2653207Y4727117D01*
X2655747Y4730089D01*
X2658440Y4732934D01*
X2661284Y4735652D01*
X2664282Y4738192D01*
X2667381Y4740579D01*
X2670632Y4742789D01*
X2673984Y4744846D01*
X2677413Y4746726D01*
X2680970Y4748403D01*
X2684576Y4749901D01*
X2688285Y4751222D01*
X2692044Y4752339D01*
X2695854Y4753254D01*
X2699715Y4753965D01*
X2703601Y4754473D01*
X2707513Y4754778D01*
X2711450Y4754879D01*
X2899892Y4754879D01*
X2899892Y4592345D01*
G37*
G36*
X2711450Y4846345D02*
G01*
X2707513Y4846421D01*
X2703601Y4846751D01*
X2699715Y4847259D01*
X2695854Y4847970D01*
X2692044Y4848885D01*
X2688285Y4850003D01*
X2684602Y4851298D01*
X2680970Y4852796D01*
X2677439Y4854498D01*
X2673984Y4856378D01*
X2670632Y4858410D01*
X2667406Y4860645D01*
X2664282Y4863033D01*
X2661310Y4865573D01*
X2658465Y4868265D01*
X2655747Y4871110D01*
X2653207Y4874107D01*
X2650820Y4877206D01*
X2648610Y4880432D01*
X2646552Y4883785D01*
X2644673Y4887239D01*
X2642997Y4890770D01*
X2641498Y4894402D01*
X2640177Y4898085D01*
X2639059Y4901869D01*
X2638145Y4905679D01*
X2637434Y4909515D01*
X2636926Y4913426D01*
X2636621Y4917338D01*
X2636494Y4921250D01*
X2636494Y4933950D01*
X2636596Y4937861D01*
X2636900Y4941773D01*
X2637434Y4945684D01*
X2638145Y4949520D01*
X2639059Y4953330D01*
X2640177Y4957114D01*
X2641472Y4960797D01*
X2642971Y4964429D01*
X2644673Y4967960D01*
X2646527Y4971414D01*
X2648584Y4974767D01*
X2650820Y4977993D01*
X2653207Y4981117D01*
X2655747Y4984089D01*
X2658440Y4986934D01*
X2661284Y4989652D01*
X2664282Y4992192D01*
X2667381Y4994579D01*
X2670632Y4996789D01*
X2673984Y4998846D01*
X2677413Y5000726D01*
X2680970Y5002403D01*
X2684576Y5003901D01*
X2688285Y5005222D01*
X2692044Y5006339D01*
X2695854Y5007254D01*
X2699715Y5007965D01*
X2703601Y5008473D01*
X2707513Y5008778D01*
X2711450Y5008879D01*
X2899892Y5008879D01*
X2899892Y4846345D01*
G37*
G36*
X2711450Y5100320D02*
G01*
X2707513Y5100396D01*
X2703601Y5100726D01*
X2699715Y5101234D01*
X2695854Y5101945D01*
X2692044Y5102860D01*
X2688285Y5103977D01*
X2684602Y5105272D01*
X2680970Y5106771D01*
X2677439Y5108473D01*
X2673984Y5110353D01*
X2670632Y5112385D01*
X2667406Y5114620D01*
X2664282Y5117007D01*
X2661310Y5119547D01*
X2658465Y5122240D01*
X2655747Y5125085D01*
X2653207Y5128082D01*
X2650820Y5131180D01*
X2648610Y5134406D01*
X2646552Y5137759D01*
X2644673Y5141213D01*
X2642997Y5144744D01*
X2641498Y5148376D01*
X2640177Y5152059D01*
X2639059Y5155844D01*
X2638145Y5159654D01*
X2637434Y5163489D01*
X2636926Y5167401D01*
X2636621Y5171312D01*
X2636494Y5175224D01*
X2636494Y5187924D01*
X2636596Y5191836D01*
X2636900Y5195747D01*
X2637434Y5199659D01*
X2638145Y5203494D01*
X2639059Y5207304D01*
X2640177Y5211089D01*
X2641472Y5214772D01*
X2642971Y5218404D01*
X2644673Y5221935D01*
X2646527Y5225389D01*
X2648584Y5228742D01*
X2650820Y5231968D01*
X2653207Y5235092D01*
X2655747Y5238064D01*
X2658440Y5240909D01*
X2661284Y5243626D01*
X2664282Y5246166D01*
X2667381Y5248554D01*
X2670632Y5250764D01*
X2673984Y5252821D01*
X2677413Y5254701D01*
X2680970Y5256377D01*
X2684576Y5257876D01*
X2688285Y5259196D01*
X2692044Y5260314D01*
X2695854Y5261229D01*
X2699715Y5261940D01*
X2703601Y5262448D01*
X2707513Y5262753D01*
X2711450Y5262854D01*
X2899892Y5262854D01*
X2899892Y5100320D01*
G37*
D11*
G01*
X2406802Y2895600D03*
G01*
X2266797Y2895600D03*
G01*
X2927502Y2908300D03*
G01*
X2787497Y2908300D03*
M02*
