G04 Layer: TopLayer*
G04 EasyEDA v6.5.54, 2026-02-28 12:46:57*
G04 7e5d5e850e924c198af6209be1a95435,0dc338707f1441f787e5ddacd88fc9c8,10*
G04 Gerber Generator version 0.2*
G04 Scale: 100 percent, Rotated: No, Reflected: No *
G04 Dimensions in millimeters *
G04 leading zeros omitted , absolute positions ,4 integer and 5 decimal *
%FSLAX45Y45*%
%MOMM*%

%AMMACRO1*21,1,$1,$2,0,0,$3*%
%ADD10C,0.2540*%
%ADD11MACRO1,1.35X1.41X90.0000*%
%ADD12R,1.6350X1.8700*%
%ADD13R,1.2500X0.7000*%
%ADD14MACRO1,1.377X1.1325X90.0000*%
%ADD15R,0.2500X0.6000*%
%ADD16R,0.6000X0.2500*%
%ADD17R,0.0155X0.2500*%
%ADD18R,1.5000X1.5000*%
%ADD19R,0.8000X0.9000*%
%ADD20O,0.999998X1.999996*%
%ADD21C,1.5748*%
%ADD22R,1.5748X1.5748*%
%ADD23C,1.5240*%
%ADD24C,1.5001*%
%ADD25C,0.6096*%

%LPD*%
D10*
X2717802Y4927600D02*
G01*
X2743177Y4927600D01*
X2743202Y4927625D01*
X2717802Y4419600D02*
G01*
X2743177Y4419600D01*
X2743202Y4419625D01*
X2717802Y4165600D02*
G01*
X2743177Y4165600D01*
X2743202Y4165625D01*
X2717802Y3911600D02*
G01*
X2743177Y3911600D01*
X2743202Y3911625D01*
X1703148Y5882512D02*
G01*
X1703148Y4845430D01*
X1711175Y4837404D01*
X2743202Y3657625D02*
G01*
X2717827Y3657625D01*
X2717802Y3657600D01*
X2415390Y6057696D02*
G01*
X2357427Y6057696D01*
X1627990Y6057696D02*
G01*
X1570027Y6057696D01*
X2357427Y6057696D02*
G01*
X2223162Y6057696D01*
X2219200Y6053734D01*
X2219200Y4156202D02*
G01*
X2219200Y6053734D01*
X2219200Y6053734D02*
G01*
X2011961Y6260972D01*
X1989025Y6260972D01*
X1989025Y6260972D02*
G01*
X1966089Y6283909D01*
X1705866Y6283909D01*
X1569900Y6147943D01*
X1569900Y6057823D01*
X1570027Y6057696D01*
X2490548Y5882512D02*
G01*
X2490548Y5805652D01*
X1168402Y3657625D02*
G01*
X1168427Y3657600D01*
X1193802Y3657600D01*
X1628015Y5957696D02*
G01*
X1628015Y4828971D01*
X1631393Y4825593D01*
X2415415Y5957696D02*
G01*
X2415415Y5130088D01*
X2319505Y5034178D01*
X1193802Y4419600D02*
G01*
X1168427Y4419600D01*
X1168402Y4419625D01*
X1193827Y5181600D02*
G01*
X1168427Y5181600D01*
X1168402Y5181625D01*
X1193802Y4673600D02*
G01*
X1168427Y4673600D01*
X1168402Y4673625D01*
X1193802Y4673600D02*
G01*
X1362534Y4842332D01*
X1362534Y6472428D01*
X2730502Y7929702D02*
G01*
X2843202Y7817002D01*
X2843202Y7112000D01*
X2262202Y2400300D02*
G01*
X2262202Y2497124D01*
X2262202Y2497124D02*
G01*
X2336396Y2571318D01*
X2336396Y4968239D01*
X2640561Y5272404D01*
X2640561Y5882512D01*
X1193802Y4927600D02*
G01*
X1168427Y4927600D01*
X1168402Y4927625D01*
X1193802Y4927600D02*
G01*
X1321742Y5055539D01*
X1321742Y5795263D01*
X1243002Y5874004D01*
X1423799Y2841142D02*
G01*
X1423799Y2570327D01*
X1484302Y2509824D01*
X1484302Y2413000D02*
G01*
X1484302Y2509824D01*
X2717802Y4673600D02*
G01*
X2743177Y4673600D01*
X2743202Y4673625D01*
X1193802Y3911600D02*
G01*
X1168427Y3911600D01*
X1168402Y3911625D01*
X1447802Y7937500D02*
G01*
X1471195Y7914106D01*
X1471195Y5280558D01*
X1445973Y5255336D01*
X1445973Y4163771D01*
X1193802Y3911600D01*
X1193802Y4165600D02*
G01*
X1168427Y4165600D01*
X1168402Y4165625D01*
X1701802Y7937500D02*
G01*
X1511988Y7747685D01*
X1511988Y4483785D01*
X2579702Y6565900D02*
G01*
X2579702Y6662724D01*
X2831442Y8496300D02*
G01*
X2721739Y8496300D01*
X2721739Y8496300D02*
G01*
X2721739Y8110397D01*
X2523721Y7912379D01*
X2523721Y6718706D01*
X2579702Y6662724D01*
X2069442Y8496300D02*
G01*
X1959739Y8496300D01*
X1938886Y8485352D02*
G01*
X1948792Y8485352D01*
X1959739Y8496300D01*
X1119202Y7010400D02*
G01*
X1119202Y7269530D01*
X1404470Y8496300D02*
G01*
X1821868Y8078901D01*
X1821868Y7141159D01*
X1868502Y7094524D01*
X1294742Y8496300D02*
G01*
X1404470Y8496300D01*
X1868502Y6997700D02*
G01*
X1868502Y7094524D01*
X2577442Y8793683D02*
G01*
X2577442Y8991600D01*
X1157302Y7480300D02*
G01*
X1157302Y7617815D01*
X1991184Y7467600D02*
G01*
X1991184Y7552181D01*
X2082802Y7643799D01*
X2082802Y8113039D01*
X2179297Y8209534D01*
X2179297Y8725585D01*
X2082142Y8822740D01*
X2082142Y9461500D01*
X1906602Y7467600D02*
G01*
X1991184Y7467600D01*
X2418260Y8496300D02*
G01*
X2418260Y8957030D01*
X2383690Y8991600D01*
X2527962Y8496300D02*
G01*
X2418260Y8496300D01*
X1778662Y9461500D02*
G01*
X1778662Y9340037D01*
X1100990Y8496300D02*
G01*
X1100990Y8918930D01*
X1173660Y8991600D01*
X2273962Y8991600D02*
G01*
X2328826Y8991600D01*
X2328826Y8991600D02*
G01*
X2383690Y8991600D01*
X2328826Y8991600D02*
G01*
X2328826Y9436049D01*
X2181786Y9583089D01*
X1982548Y9583089D01*
X1888390Y9488931D01*
X1888390Y9461500D01*
X1778662Y9461500D02*
G01*
X1888390Y9461500D01*
X991262Y8496300D02*
G01*
X1046126Y8496300D01*
X1046126Y8496300D02*
G01*
X1100990Y8496300D01*
X1046126Y8496300D02*
G01*
X832970Y8283143D01*
X832970Y6088557D01*
X952527Y5969000D01*
X1043002Y5969000D02*
G01*
X952527Y5969000D01*
X1228524Y8991600D02*
G01*
X1248463Y8991600D01*
X1228524Y8991600D02*
G01*
X1173660Y8991600D01*
X1283362Y8991600D02*
G01*
X1248463Y8991600D01*
X1248463Y8991600D02*
G01*
X1370053Y9113189D01*
X1765962Y9113189D01*
X1765962Y8496300D02*
G01*
X1765962Y9113189D01*
X1765962Y9113189D02*
G01*
X1765962Y9327337D01*
X1778662Y9340037D01*
X1586842Y8991600D02*
G01*
X1477139Y8991600D01*
X1093802Y6591300D02*
G01*
X1178384Y6591300D01*
X1178384Y6591300D02*
G01*
X1209093Y6622008D01*
X1209093Y7224115D01*
X1247650Y7262672D01*
X1247650Y7805724D01*
X1303886Y7861960D01*
X1303886Y8117459D01*
X1177749Y8243595D01*
X1177749Y8601811D01*
X1477139Y8901201D01*
X1477139Y8991600D01*
X2640408Y6182487D02*
G01*
X2640408Y6387414D01*
X2693291Y6440296D01*
X2693291Y6655358D01*
X2700759Y6662826D01*
X2857019Y6662826D01*
X3012036Y6507810D01*
X3012036Y1794433D01*
X2843202Y1625600D01*
X2579296Y6302755D02*
G01*
X2590396Y6291656D01*
X2590396Y6182487D01*
X1853008Y6182487D02*
G01*
X1883463Y6152032D01*
X1983564Y6152032D01*
X2106627Y6028969D01*
X2106627Y3004616D01*
X1802996Y6182487D02*
G01*
X1802996Y6240475D01*
X1802996Y6240475D02*
G01*
X1804037Y6241516D01*
X1906424Y6241516D01*
X1955116Y6192824D01*
X2008812Y6192824D01*
X2147420Y6054217D01*
X2147420Y3507130D01*
X2167765Y3486785D01*
X2266800Y2895600D02*
G01*
X2198829Y2895600D01*
X1627202Y2882900D02*
G01*
X1627202Y2978378D01*
X1152527Y6063995D02*
G01*
X1007925Y6208598D01*
X1007925Y7751622D01*
X1193802Y7937500D01*
X1043002Y1612900D02*
G01*
X1004902Y1651000D01*
X1004902Y2857500D01*
X1284302Y2413000D02*
G01*
X1284302Y2509824D01*
X2198829Y2895600D02*
G01*
X2001192Y2895600D01*
X1918286Y2978505D01*
X1918286Y2978505D02*
G01*
X1627329Y2978505D01*
X1627202Y2978378D01*
X2266800Y2795219D02*
G01*
X2266800Y2895600D01*
X2787500Y2908300D02*
G01*
X2787500Y2981274D01*
X2787500Y2981274D02*
G01*
X2779168Y2981274D01*
X2759966Y3000476D01*
X1918286Y2978505D02*
G01*
X1918286Y4452924D01*
X1569925Y4801285D01*
X1569925Y6007607D01*
X1570027Y6007709D01*
X1628015Y6007709D02*
G01*
X1570027Y6007709D01*
X2582268Y7888122D02*
G01*
X2582268Y7269759D01*
X2643202Y7208824D01*
X2643202Y7112000D02*
G01*
X2643202Y7208824D01*
X2415415Y6007709D02*
G01*
X2357427Y6007709D01*
X2266800Y2895600D02*
G01*
X2266800Y2968574D01*
X1627202Y2978378D02*
G01*
X1336169Y2978378D01*
X1319837Y2962046D01*
X1319837Y2962046D02*
G01*
X1319837Y2545359D01*
X1284302Y2509824D01*
X1004902Y2857500D02*
G01*
X1004902Y2952978D01*
X2266800Y2968574D02*
G01*
X2281201Y2982976D01*
X2281201Y4322521D01*
X2260958Y4342764D01*
X2260958Y5911240D01*
X2357427Y6007709D01*
X1243002Y6063995D02*
G01*
X1197764Y6063995D01*
X1197764Y6063995D02*
G01*
X1152527Y6063995D01*
X1197764Y6063995D02*
G01*
X1144196Y6010427D01*
X1144196Y5601919D01*
X982195Y5439918D01*
X982195Y2993821D01*
X1013970Y2962046D01*
X1319837Y2962046D02*
G01*
X1013970Y2962046D01*
X1013970Y2962046D02*
G01*
X1004902Y2952978D01*
X2927504Y2835325D02*
G01*
X2546809Y2454630D01*
X2546809Y2400300D01*
X2927504Y2908300D02*
G01*
X2927504Y2835325D01*
X2462202Y2400300D02*
G01*
X2546809Y2400300D01*
X2462202Y2400300D02*
G01*
X2462202Y2497124D01*
X2715389Y6057696D02*
G01*
X2773377Y6057696D01*
X2717802Y5181600D02*
G01*
X2743202Y5181600D01*
X2773377Y6057696D02*
G01*
X2773504Y6057569D01*
X2773504Y5211902D01*
X2743202Y5181600D01*
X2406804Y2895600D02*
G01*
X2406804Y4870602D01*
X2717802Y5181600D01*
X2333271Y7486345D02*
G01*
X2209954Y7486345D01*
X2191209Y7467600D01*
X2106602Y7467600D02*
G01*
X2191209Y7467600D01*
X2068502Y6997700D02*
G01*
X2068502Y7332675D01*
X2106602Y7370775D01*
X1357302Y7480300D02*
G01*
X1357302Y7145324D01*
X1319202Y7107224D01*
X1319202Y7010400D02*
G01*
X1319202Y7107224D01*
X2406804Y2497124D02*
G01*
X2462202Y2497124D01*
X2406804Y2895600D02*
G01*
X2406804Y2497124D01*
X1319202Y7010400D02*
G01*
X1319202Y6961987D01*
X1319202Y6691909D02*
G01*
X1315417Y6688124D01*
X1293802Y6688124D01*
X1319202Y6961987D02*
G01*
X1319202Y6691909D01*
X1319202Y6691909D02*
G01*
X1412648Y6598462D01*
X1293802Y6591300D02*
G01*
X1293802Y6688124D01*
X1204902Y2857500D02*
G01*
X1204902Y2762046D01*
X2406804Y2497124D02*
G01*
X2406804Y2310739D01*
X2399413Y2303348D01*
X2181964Y2303348D01*
X1903427Y2581884D01*
X1827202Y2581884D01*
X1827202Y2581884D02*
G01*
X1827202Y2882900D01*
X1243002Y1612900D02*
G01*
X1243002Y2305202D01*
X1204902Y2762046D02*
G01*
X1199568Y2756712D01*
X1199568Y2326894D01*
X1221259Y2305202D01*
X1243002Y2305202D01*
X1243002Y2305202D02*
G01*
X1550520Y2305202D01*
X1827202Y2581884D01*
X2715414Y6107709D02*
G01*
X2715389Y6107684D01*
X2715389Y6094501D01*
X2715389Y6057696D02*
G01*
X2715389Y6094501D01*
X2779702Y6565900D02*
G01*
X2779702Y6469075D01*
X2715389Y6094501D02*
G01*
X2715389Y6404762D01*
X2779702Y6469075D01*
X2106602Y7467600D02*
G01*
X2106602Y7370775D01*
X1927989Y6057696D02*
G01*
X1927989Y6107709D01*
X1928014Y6107709D01*
X1985977Y6057696D02*
G01*
X2025042Y6018631D01*
X2025042Y5951346D01*
X1927989Y6057696D02*
G01*
X1985977Y6057696D01*
D11*
G01*
X1827202Y2882900D03*
G01*
X1627197Y2882900D03*
G01*
X1204902Y2857500D03*
G01*
X1004897Y2857500D03*
D12*
G01*
X1586839Y8991600D03*
G01*
X1283360Y8991600D03*
G01*
X2082139Y9461500D03*
G01*
X1778660Y9461500D03*
G01*
X2577439Y8991600D03*
G01*
X2273960Y8991600D03*
G01*
X1294739Y8496300D03*
G01*
X991260Y8496300D03*
G01*
X2069439Y8496300D03*
G01*
X1765960Y8496300D03*
G01*
X2831439Y8496300D03*
G01*
X2527960Y8496300D03*
D13*
G01*
X1242999Y5874004D03*
G01*
X1242999Y6063995D03*
G01*
X1043000Y5969000D03*
D14*
G01*
X1293804Y6591300D03*
G01*
X1093795Y6591300D03*
G01*
X2106604Y7467600D03*
G01*
X1906595Y7467600D03*
G01*
X1357304Y7480300D03*
G01*
X1157295Y7480300D03*
G01*
X2068504Y6997700D03*
G01*
X1868495Y6997700D03*
G01*
X1319204Y7010400D03*
G01*
X1119195Y7010400D03*
G01*
X2779704Y6565900D03*
G01*
X2579695Y6565900D03*
G01*
X1484304Y2413000D03*
G01*
X1284295Y2413000D03*
G01*
X2462204Y2400300D03*
G01*
X2262195Y2400300D03*
G01*
X2843204Y7112000D03*
G01*
X2643195Y7112000D03*
G36*
X1011692Y5262890D02*
G01*
X1200142Y5262890D01*
X1200142Y5262890D01*
X1204064Y5262786D01*
X1207975Y5262478D01*
X1211864Y5261968D01*
X1215722Y5261249D01*
X1219537Y5260337D01*
X1223299Y5259222D01*
X1226997Y5257914D01*
X1230622Y5256408D01*
X1234163Y5254721D01*
X1237612Y5252849D01*
X1240957Y5250799D01*
X1244188Y5248577D01*
X1247302Y5246187D01*
X1250284Y5243639D01*
X1253131Y5240939D01*
X1255831Y5238094D01*
X1258379Y5235112D01*
X1260767Y5231996D01*
X1262989Y5228762D01*
X1265039Y5225417D01*
X1266911Y5221968D01*
X1268600Y5218427D01*
X1270101Y5214802D01*
X1271409Y5211107D01*
X1272524Y5207342D01*
X1273439Y5203530D01*
X1274152Y5199669D01*
X1274665Y5195780D01*
X1274973Y5191869D01*
X1275074Y5187950D01*
X1275074Y5187950D01*
X1275074Y5175250D01*
X1275074Y5175250D01*
X1274970Y5171328D01*
X1274663Y5167416D01*
X1274150Y5163527D01*
X1273434Y5159672D01*
X1272517Y5155859D01*
X1271404Y5152095D01*
X1270093Y5148399D01*
X1268592Y5144775D01*
X1266903Y5141234D01*
X1265031Y5137790D01*
X1262981Y5134444D01*
X1260759Y5131211D01*
X1258369Y5128099D01*
X1255821Y5125120D01*
X1253121Y5122275D01*
X1250276Y5119575D01*
X1247292Y5117028D01*
X1244180Y5114640D01*
X1240947Y5112420D01*
X1237604Y5110368D01*
X1234155Y5108496D01*
X1230617Y5106807D01*
X1226992Y5105311D01*
X1223294Y5104000D01*
X1219532Y5102887D01*
X1215720Y5101968D01*
X1211861Y5101254D01*
X1207973Y5100741D01*
X1204064Y5100434D01*
X1200142Y5100335D01*
X1011692Y5100335D01*
X1011692Y5262890D01*
G37*
G36*
X1011692Y5008890D02*
G01*
X1200142Y5008890D01*
X1200142Y5008890D01*
X1204064Y5008786D01*
X1207975Y5008478D01*
X1211864Y5007968D01*
X1215722Y5007249D01*
X1219537Y5006337D01*
X1223299Y5005222D01*
X1226997Y5003914D01*
X1230622Y5002408D01*
X1234163Y5000721D01*
X1237612Y4998849D01*
X1240957Y4996799D01*
X1244188Y4994577D01*
X1247302Y4992187D01*
X1250284Y4989639D01*
X1253131Y4986939D01*
X1255831Y4984094D01*
X1258379Y4981112D01*
X1260767Y4977996D01*
X1262989Y4974762D01*
X1265039Y4971417D01*
X1266911Y4967968D01*
X1268600Y4964427D01*
X1270101Y4960802D01*
X1271409Y4957107D01*
X1272524Y4953342D01*
X1273439Y4949530D01*
X1274152Y4945669D01*
X1274665Y4941780D01*
X1274973Y4937869D01*
X1275074Y4933950D01*
X1275074Y4933950D01*
X1275074Y4921250D01*
X1275074Y4921250D01*
X1274970Y4917328D01*
X1274663Y4913416D01*
X1274150Y4909527D01*
X1273434Y4905672D01*
X1272517Y4901859D01*
X1271404Y4898095D01*
X1270093Y4894399D01*
X1268592Y4890775D01*
X1266903Y4887234D01*
X1265031Y4883790D01*
X1262981Y4880444D01*
X1260759Y4877211D01*
X1258369Y4874099D01*
X1255821Y4871120D01*
X1253121Y4868275D01*
X1250276Y4865575D01*
X1247292Y4863028D01*
X1244180Y4860640D01*
X1240947Y4858420D01*
X1237604Y4856368D01*
X1234155Y4854496D01*
X1230617Y4852807D01*
X1226992Y4851311D01*
X1223294Y4850000D01*
X1219532Y4848887D01*
X1215720Y4847968D01*
X1211861Y4847254D01*
X1207973Y4846741D01*
X1204064Y4846434D01*
X1200142Y4846335D01*
X1011692Y4846335D01*
X1011692Y5008890D01*
G37*
G36*
X1011692Y4754890D02*
G01*
X1200142Y4754890D01*
X1204064Y4754786D01*
X1207975Y4754478D01*
X1211864Y4753968D01*
X1215722Y4753249D01*
X1219537Y4752337D01*
X1223299Y4751222D01*
X1226997Y4749914D01*
X1230622Y4748408D01*
X1234163Y4746721D01*
X1237612Y4744849D01*
X1240957Y4742799D01*
X1244188Y4740577D01*
X1247302Y4738187D01*
X1250284Y4735639D01*
X1253131Y4732939D01*
X1255831Y4730094D01*
X1258379Y4727112D01*
X1260767Y4723996D01*
X1262989Y4720762D01*
X1265039Y4717417D01*
X1266911Y4713968D01*
X1268600Y4710427D01*
X1270101Y4706802D01*
X1271409Y4703107D01*
X1272524Y4699342D01*
X1273439Y4695530D01*
X1274152Y4691669D01*
X1274665Y4687780D01*
X1274973Y4683869D01*
X1275074Y4679950D01*
X1275074Y4679950D01*
X1275074Y4667250D01*
X1275074Y4667250D01*
X1274970Y4663328D01*
X1274663Y4659416D01*
X1274150Y4655527D01*
X1273434Y4651672D01*
X1272517Y4647859D01*
X1271404Y4644095D01*
X1270093Y4640399D01*
X1268592Y4636775D01*
X1266903Y4633234D01*
X1265031Y4629790D01*
X1262981Y4626444D01*
X1260759Y4623211D01*
X1258369Y4620099D01*
X1255821Y4617120D01*
X1253121Y4614275D01*
X1250276Y4611575D01*
X1247292Y4609028D01*
X1244180Y4606640D01*
X1240947Y4604420D01*
X1237604Y4602368D01*
X1234155Y4600496D01*
X1230617Y4598807D01*
X1226992Y4597311D01*
X1223294Y4596000D01*
X1219532Y4594887D01*
X1215720Y4593968D01*
X1211861Y4593254D01*
X1207973Y4592741D01*
X1204064Y4592434D01*
X1200142Y4592335D01*
X1011692Y4592335D01*
X1011692Y4754890D01*
G37*
G36*
X1011692Y4500890D02*
G01*
X1200142Y4500890D01*
X1204064Y4500786D01*
X1207975Y4500478D01*
X1211864Y4499968D01*
X1215722Y4499249D01*
X1219537Y4498337D01*
X1223299Y4497222D01*
X1226997Y4495914D01*
X1230622Y4494408D01*
X1234163Y4492721D01*
X1237612Y4490849D01*
X1240957Y4488799D01*
X1244188Y4486577D01*
X1247302Y4484187D01*
X1250284Y4481639D01*
X1253131Y4478939D01*
X1255831Y4476094D01*
X1258379Y4473112D01*
X1260767Y4469996D01*
X1262989Y4466762D01*
X1265039Y4463417D01*
X1266911Y4459968D01*
X1268600Y4456427D01*
X1270101Y4452802D01*
X1271409Y4449107D01*
X1272524Y4445342D01*
X1273439Y4441530D01*
X1274152Y4437669D01*
X1274665Y4433780D01*
X1274973Y4429869D01*
X1275074Y4425950D01*
X1275074Y4425950D01*
X1275074Y4413250D01*
X1275074Y4413250D01*
X1274970Y4409328D01*
X1274663Y4405416D01*
X1274150Y4401527D01*
X1273434Y4397672D01*
X1272517Y4393859D01*
X1271404Y4390095D01*
X1270093Y4386399D01*
X1268592Y4382775D01*
X1266903Y4379234D01*
X1265031Y4375790D01*
X1262981Y4372444D01*
X1260759Y4369211D01*
X1258369Y4366099D01*
X1255821Y4363120D01*
X1253121Y4360275D01*
X1250276Y4357575D01*
X1247292Y4355028D01*
X1244180Y4352640D01*
X1240947Y4350420D01*
X1237604Y4348368D01*
X1234155Y4346496D01*
X1230617Y4344807D01*
X1226992Y4343311D01*
X1223294Y4342000D01*
X1219532Y4340887D01*
X1215720Y4339968D01*
X1211861Y4339254D01*
X1207973Y4338741D01*
X1204064Y4338434D01*
X1200142Y4338335D01*
X1011692Y4338335D01*
X1011692Y4500890D01*
G37*
G36*
X1011692Y4246890D02*
G01*
X1200142Y4246890D01*
X1204064Y4246786D01*
X1207975Y4246478D01*
X1211864Y4245968D01*
X1215722Y4245249D01*
X1219537Y4244337D01*
X1223299Y4243222D01*
X1226997Y4241914D01*
X1230622Y4240408D01*
X1234163Y4238721D01*
X1237612Y4236849D01*
X1240957Y4234799D01*
X1244188Y4232577D01*
X1247302Y4230187D01*
X1250284Y4227639D01*
X1253131Y4224939D01*
X1255831Y4222094D01*
X1258379Y4219112D01*
X1260767Y4215996D01*
X1262989Y4212762D01*
X1265039Y4209417D01*
X1266911Y4205968D01*
X1268600Y4202427D01*
X1270101Y4198802D01*
X1271409Y4195107D01*
X1272524Y4191342D01*
X1273439Y4187530D01*
X1274152Y4183669D01*
X1274665Y4179780D01*
X1274973Y4175869D01*
X1275074Y4171950D01*
X1275074Y4171950D01*
X1275074Y4159250D01*
X1275074Y4159250D01*
X1274970Y4155328D01*
X1274663Y4151416D01*
X1274150Y4147527D01*
X1273434Y4143672D01*
X1272517Y4139859D01*
X1271404Y4136095D01*
X1270093Y4132399D01*
X1268592Y4128775D01*
X1266903Y4125234D01*
X1265031Y4121790D01*
X1262981Y4118444D01*
X1260759Y4115211D01*
X1258369Y4112099D01*
X1255821Y4109120D01*
X1253121Y4106275D01*
X1250276Y4103575D01*
X1247292Y4101028D01*
X1244180Y4098640D01*
X1240947Y4096420D01*
X1237604Y4094368D01*
X1234155Y4092496D01*
X1230617Y4090807D01*
X1226992Y4089311D01*
X1223294Y4088000D01*
X1219532Y4086887D01*
X1215720Y4085968D01*
X1211861Y4085254D01*
X1207973Y4084741D01*
X1204064Y4084434D01*
X1200142Y4084335D01*
X1011692Y4084335D01*
X1011692Y4246890D01*
G37*
G36*
X1011692Y3992890D02*
G01*
X1200142Y3992890D01*
X1204064Y3992786D01*
X1207975Y3992478D01*
X1211864Y3991968D01*
X1215722Y3991249D01*
X1219537Y3990337D01*
X1223299Y3989222D01*
X1226997Y3987914D01*
X1230622Y3986408D01*
X1234163Y3984721D01*
X1237612Y3982849D01*
X1240957Y3980799D01*
X1244188Y3978577D01*
X1247302Y3976187D01*
X1250284Y3973639D01*
X1253131Y3970939D01*
X1255831Y3968094D01*
X1258379Y3965112D01*
X1260767Y3961996D01*
X1262989Y3958762D01*
X1265039Y3955417D01*
X1266911Y3951968D01*
X1268600Y3948427D01*
X1270101Y3944802D01*
X1271409Y3941107D01*
X1272524Y3937342D01*
X1273439Y3933530D01*
X1274152Y3929669D01*
X1274665Y3925780D01*
X1274973Y3921869D01*
X1275074Y3917950D01*
X1275074Y3917950D01*
X1275074Y3905250D01*
X1275074Y3905250D01*
X1274970Y3901328D01*
X1274663Y3897416D01*
X1274150Y3893527D01*
X1273434Y3889672D01*
X1272517Y3885859D01*
X1271404Y3882095D01*
X1270093Y3878399D01*
X1268592Y3874775D01*
X1266903Y3871234D01*
X1265031Y3867790D01*
X1262981Y3864444D01*
X1260759Y3861211D01*
X1258369Y3858099D01*
X1255821Y3855120D01*
X1253121Y3852275D01*
X1250276Y3849575D01*
X1247292Y3847028D01*
X1244180Y3844640D01*
X1240947Y3842420D01*
X1237604Y3840368D01*
X1234155Y3838496D01*
X1230617Y3836807D01*
X1226992Y3835311D01*
X1223294Y3834000D01*
X1219532Y3832887D01*
X1215720Y3831968D01*
X1211861Y3831254D01*
X1207973Y3830741D01*
X1204064Y3830434D01*
X1200142Y3830335D01*
X1011692Y3830335D01*
X1011692Y3992890D01*
G37*
G36*
X1011692Y3738890D02*
G01*
X1200142Y3738890D01*
X1204064Y3738786D01*
X1207975Y3738478D01*
X1211864Y3737968D01*
X1215722Y3737249D01*
X1219537Y3736337D01*
X1223299Y3735222D01*
X1226997Y3733914D01*
X1230622Y3732408D01*
X1234163Y3730721D01*
X1237612Y3728849D01*
X1240957Y3726799D01*
X1244188Y3724577D01*
X1247302Y3722187D01*
X1250284Y3719639D01*
X1253131Y3716939D01*
X1255831Y3714094D01*
X1258379Y3711112D01*
X1260767Y3707996D01*
X1262989Y3704762D01*
X1265039Y3701417D01*
X1266911Y3697968D01*
X1268600Y3694427D01*
X1270101Y3690802D01*
X1271409Y3687107D01*
X1272524Y3683342D01*
X1273439Y3679530D01*
X1274152Y3675669D01*
X1274665Y3671780D01*
X1274973Y3667869D01*
X1275074Y3663950D01*
X1275074Y3663950D01*
X1275074Y3651250D01*
X1275074Y3651250D01*
X1274970Y3647328D01*
X1274663Y3643416D01*
X1274150Y3639527D01*
X1273434Y3635672D01*
X1272517Y3631859D01*
X1271404Y3628095D01*
X1270093Y3624399D01*
X1268592Y3620775D01*
X1266903Y3617234D01*
X1265031Y3613790D01*
X1262981Y3610444D01*
X1260759Y3607211D01*
X1258369Y3604099D01*
X1255821Y3601120D01*
X1253121Y3598275D01*
X1250276Y3595575D01*
X1247292Y3593028D01*
X1244180Y3590640D01*
X1240947Y3588420D01*
X1237604Y3586368D01*
X1234155Y3584496D01*
X1230617Y3582807D01*
X1226992Y3581311D01*
X1223294Y3580000D01*
X1219532Y3578887D01*
X1215720Y3577968D01*
X1211861Y3577254D01*
X1207973Y3576741D01*
X1204064Y3576434D01*
X1200142Y3576335D01*
X1011692Y3576335D01*
X1011692Y3738890D01*
G37*
G36*
X2899892Y3576335D02*
G01*
X2711442Y3576335D01*
X2707520Y3576434D01*
X2703611Y3576741D01*
X2699720Y3577254D01*
X2695864Y3577968D01*
X2692049Y3578882D01*
X2688287Y3580000D01*
X2684592Y3581308D01*
X2680967Y3582807D01*
X2677426Y3584496D01*
X2673977Y3586368D01*
X2670634Y3588418D01*
X2667401Y3590640D01*
X2664287Y3593023D01*
X2661305Y3595573D01*
X2658460Y3598270D01*
X2655757Y3601118D01*
X2653210Y3604099D01*
X2650822Y3607211D01*
X2648600Y3610444D01*
X2646550Y3613790D01*
X2644678Y3617234D01*
X2642989Y3620775D01*
X2641485Y3624399D01*
X2640177Y3628095D01*
X2639062Y3631859D01*
X2638145Y3635672D01*
X2637429Y3639527D01*
X2636916Y3643416D01*
X2636608Y3647328D01*
X2636504Y3651250D01*
X2636504Y3663950D01*
X2636606Y3667869D01*
X2636913Y3671780D01*
X2637426Y3675674D01*
X2638140Y3679530D01*
X2639054Y3683342D01*
X2640169Y3687107D01*
X2641480Y3690807D01*
X2642981Y3694432D01*
X2644668Y3697973D01*
X2646540Y3701422D01*
X2648590Y3704767D01*
X2650812Y3708001D01*
X2653202Y3711112D01*
X2655750Y3714094D01*
X2658450Y3716939D01*
X2661295Y3719644D01*
X2664279Y3722192D01*
X2667391Y3724579D01*
X2670627Y3726799D01*
X2673972Y3728849D01*
X2677419Y3730724D01*
X2680959Y3732413D01*
X2684584Y3733914D01*
X2688285Y3735222D01*
X2692046Y3736337D01*
X2695862Y3737254D01*
X2699717Y3737968D01*
X2703609Y3738478D01*
X2707520Y3738786D01*
X2711442Y3738890D01*
X2899892Y3738890D01*
X2899892Y3576335D01*
G37*
G36*
X2899892Y3830335D02*
G01*
X2711442Y3830335D01*
X2707520Y3830434D01*
X2703611Y3830741D01*
X2699720Y3831254D01*
X2695864Y3831968D01*
X2692049Y3832882D01*
X2688287Y3834000D01*
X2684592Y3835308D01*
X2680967Y3836807D01*
X2677426Y3838496D01*
X2673977Y3840368D01*
X2670634Y3842418D01*
X2667401Y3844640D01*
X2664287Y3847023D01*
X2661305Y3849573D01*
X2658460Y3852270D01*
X2655757Y3855118D01*
X2653210Y3858099D01*
X2650822Y3861211D01*
X2648600Y3864444D01*
X2646550Y3867790D01*
X2644678Y3871234D01*
X2642989Y3874775D01*
X2641485Y3878399D01*
X2640177Y3882095D01*
X2639062Y3885859D01*
X2638145Y3889672D01*
X2637429Y3893527D01*
X2636916Y3897416D01*
X2636608Y3901328D01*
X2636504Y3905250D01*
X2636504Y3917950D01*
X2636606Y3921869D01*
X2636913Y3925780D01*
X2637426Y3929674D01*
X2638140Y3933530D01*
X2639054Y3937342D01*
X2640169Y3941107D01*
X2641480Y3944807D01*
X2642981Y3948432D01*
X2644668Y3951973D01*
X2646540Y3955422D01*
X2648590Y3958767D01*
X2650812Y3962001D01*
X2653202Y3965112D01*
X2655750Y3968094D01*
X2658450Y3970939D01*
X2661295Y3973644D01*
X2664279Y3976192D01*
X2667391Y3978579D01*
X2670627Y3980799D01*
X2673972Y3982849D01*
X2677419Y3984724D01*
X2680959Y3986413D01*
X2684584Y3987914D01*
X2688285Y3989222D01*
X2692046Y3990337D01*
X2695862Y3991254D01*
X2699717Y3991968D01*
X2703609Y3992478D01*
X2707520Y3992786D01*
X2711442Y3992890D01*
X2899892Y3992890D01*
X2899892Y3830335D01*
G37*
G36*
X2899892Y4084335D02*
G01*
X2711442Y4084335D01*
X2707520Y4084434D01*
X2703611Y4084741D01*
X2699720Y4085254D01*
X2695864Y4085968D01*
X2692049Y4086882D01*
X2688287Y4088000D01*
X2684592Y4089308D01*
X2680967Y4090807D01*
X2677426Y4092496D01*
X2673977Y4094368D01*
X2670634Y4096418D01*
X2667401Y4098640D01*
X2664287Y4101023D01*
X2661305Y4103573D01*
X2658460Y4106270D01*
X2655757Y4109118D01*
X2653210Y4112099D01*
X2650822Y4115211D01*
X2648600Y4118444D01*
X2646550Y4121790D01*
X2644678Y4125234D01*
X2642989Y4128775D01*
X2641485Y4132399D01*
X2640177Y4136095D01*
X2639062Y4139859D01*
X2638145Y4143672D01*
X2637429Y4147527D01*
X2636916Y4151416D01*
X2636608Y4155328D01*
X2636504Y4159250D01*
X2636504Y4171950D01*
X2636606Y4175869D01*
X2636913Y4179780D01*
X2637426Y4183674D01*
X2638140Y4187530D01*
X2639054Y4191342D01*
X2640169Y4195107D01*
X2641480Y4198807D01*
X2642981Y4202432D01*
X2644668Y4205973D01*
X2646540Y4209422D01*
X2648590Y4212767D01*
X2650812Y4216001D01*
X2653202Y4219112D01*
X2655750Y4222094D01*
X2658450Y4224939D01*
X2661295Y4227644D01*
X2664279Y4230192D01*
X2667391Y4232579D01*
X2670627Y4234799D01*
X2673972Y4236849D01*
X2677419Y4238724D01*
X2680959Y4240413D01*
X2684584Y4241914D01*
X2688285Y4243222D01*
X2692046Y4244337D01*
X2695862Y4245254D01*
X2699717Y4245968D01*
X2703609Y4246478D01*
X2707520Y4246786D01*
X2711442Y4246890D01*
X2899892Y4246890D01*
X2899892Y4084335D01*
G37*
G36*
X2899892Y4338335D02*
G01*
X2711442Y4338335D01*
X2707520Y4338434D01*
X2703611Y4338741D01*
X2699720Y4339254D01*
X2695864Y4339968D01*
X2692049Y4340882D01*
X2688287Y4342000D01*
X2684592Y4343308D01*
X2680967Y4344807D01*
X2677426Y4346496D01*
X2673977Y4348368D01*
X2670634Y4350418D01*
X2667401Y4352640D01*
X2664287Y4355023D01*
X2661305Y4357573D01*
X2658460Y4360270D01*
X2655757Y4363118D01*
X2653210Y4366099D01*
X2650822Y4369211D01*
X2648600Y4372444D01*
X2646550Y4375790D01*
X2644678Y4379234D01*
X2642989Y4382775D01*
X2641485Y4386399D01*
X2640177Y4390095D01*
X2639062Y4393859D01*
X2638145Y4397672D01*
X2637429Y4401527D01*
X2636916Y4405416D01*
X2636608Y4409328D01*
X2636504Y4413250D01*
X2636504Y4425950D01*
X2636606Y4429869D01*
X2636913Y4433780D01*
X2637426Y4437674D01*
X2638140Y4441530D01*
X2639054Y4445342D01*
X2640169Y4449107D01*
X2641480Y4452807D01*
X2642981Y4456432D01*
X2644668Y4459973D01*
X2646540Y4463422D01*
X2648590Y4466767D01*
X2650812Y4470001D01*
X2653202Y4473112D01*
X2655750Y4476094D01*
X2658450Y4478939D01*
X2661295Y4481644D01*
X2664279Y4484192D01*
X2667391Y4486579D01*
X2670627Y4488799D01*
X2673972Y4490849D01*
X2677419Y4492724D01*
X2680959Y4494413D01*
X2684584Y4495914D01*
X2688285Y4497222D01*
X2692046Y4498337D01*
X2695862Y4499254D01*
X2699717Y4499968D01*
X2703609Y4500478D01*
X2707520Y4500786D01*
X2711442Y4500890D01*
X2899892Y4500890D01*
X2899892Y4338335D01*
G37*
G36*
X2899892Y4592335D02*
G01*
X2711442Y4592335D01*
X2707520Y4592434D01*
X2703611Y4592741D01*
X2699720Y4593254D01*
X2695864Y4593968D01*
X2692049Y4594882D01*
X2688287Y4596000D01*
X2684592Y4597308D01*
X2680967Y4598807D01*
X2677426Y4600496D01*
X2673977Y4602368D01*
X2670634Y4604418D01*
X2667401Y4606640D01*
X2664287Y4609023D01*
X2661305Y4611573D01*
X2658460Y4614270D01*
X2655757Y4617118D01*
X2653210Y4620099D01*
X2650822Y4623211D01*
X2648600Y4626444D01*
X2646550Y4629790D01*
X2644678Y4633234D01*
X2642989Y4636775D01*
X2641485Y4640399D01*
X2640177Y4644095D01*
X2639062Y4647859D01*
X2638145Y4651672D01*
X2637429Y4655527D01*
X2636916Y4659416D01*
X2636608Y4663328D01*
X2636504Y4667250D01*
X2636504Y4679950D01*
X2636606Y4683869D01*
X2636913Y4687780D01*
X2637426Y4691674D01*
X2638140Y4695530D01*
X2639054Y4699342D01*
X2640169Y4703107D01*
X2641480Y4706807D01*
X2642981Y4710432D01*
X2644668Y4713973D01*
X2646540Y4717422D01*
X2648590Y4720767D01*
X2650812Y4724001D01*
X2653202Y4727112D01*
X2655750Y4730094D01*
X2658450Y4732939D01*
X2661295Y4735644D01*
X2664279Y4738192D01*
X2667391Y4740579D01*
X2670627Y4742799D01*
X2673972Y4744849D01*
X2677419Y4746724D01*
X2680959Y4748413D01*
X2684584Y4749914D01*
X2688285Y4751222D01*
X2692046Y4752337D01*
X2695862Y4753254D01*
X2699717Y4753968D01*
X2703609Y4754478D01*
X2707520Y4754786D01*
X2711442Y4754890D01*
X2899892Y4754890D01*
X2899892Y4592335D01*
G37*
G36*
X2899892Y4846335D02*
G01*
X2711442Y4846335D01*
X2707520Y4846434D01*
X2703611Y4846741D01*
X2699720Y4847254D01*
X2695864Y4847968D01*
X2692049Y4848882D01*
X2688287Y4850000D01*
X2684592Y4851308D01*
X2680967Y4852807D01*
X2677426Y4854496D01*
X2673977Y4856368D01*
X2670634Y4858418D01*
X2667401Y4860640D01*
X2664287Y4863023D01*
X2661305Y4865573D01*
X2658460Y4868270D01*
X2655757Y4871118D01*
X2653210Y4874099D01*
X2650822Y4877211D01*
X2648600Y4880444D01*
X2646550Y4883790D01*
X2644678Y4887234D01*
X2642989Y4890775D01*
X2641485Y4894399D01*
X2640177Y4898095D01*
X2639062Y4901859D01*
X2638145Y4905672D01*
X2637429Y4909527D01*
X2636916Y4913416D01*
X2636608Y4917328D01*
X2636504Y4921250D01*
X2636504Y4933950D01*
X2636606Y4937869D01*
X2636913Y4941780D01*
X2637426Y4945674D01*
X2638140Y4949530D01*
X2639054Y4953342D01*
X2640169Y4957107D01*
X2641480Y4960807D01*
X2642981Y4964432D01*
X2644668Y4967973D01*
X2646540Y4971422D01*
X2648590Y4974767D01*
X2650812Y4978001D01*
X2653202Y4981112D01*
X2655750Y4984094D01*
X2658450Y4986939D01*
X2661295Y4989644D01*
X2664279Y4992192D01*
X2667391Y4994579D01*
X2670627Y4996799D01*
X2673972Y4998849D01*
X2677419Y5000724D01*
X2680959Y5002413D01*
X2684584Y5003914D01*
X2688285Y5005222D01*
X2692046Y5006337D01*
X2695862Y5007254D01*
X2699717Y5007968D01*
X2703609Y5008478D01*
X2707520Y5008786D01*
X2711442Y5008890D01*
X2711442Y5008890D01*
X2899892Y5008890D01*
X2899892Y4846335D01*
G37*
G36*
X2899892Y5100309D02*
G01*
X2711442Y5100309D01*
X2707520Y5100408D01*
X2703611Y5100716D01*
X2699720Y5101229D01*
X2695864Y5101943D01*
X2692049Y5102857D01*
X2688287Y5103975D01*
X2684592Y5105283D01*
X2680967Y5106781D01*
X2677426Y5108470D01*
X2673977Y5110342D01*
X2670634Y5112392D01*
X2667401Y5114615D01*
X2664287Y5116997D01*
X2661305Y5119547D01*
X2658460Y5122245D01*
X2655757Y5125092D01*
X2653210Y5128074D01*
X2650822Y5131186D01*
X2648600Y5134419D01*
X2646550Y5137764D01*
X2644678Y5141208D01*
X2642989Y5144749D01*
X2641485Y5148374D01*
X2640177Y5152069D01*
X2639062Y5155834D01*
X2638145Y5159646D01*
X2637429Y5163502D01*
X2636916Y5167391D01*
X2636608Y5171302D01*
X2636504Y5175224D01*
X2636504Y5187924D01*
X2636606Y5191843D01*
X2636913Y5195755D01*
X2637426Y5199649D01*
X2638140Y5203504D01*
X2639054Y5207317D01*
X2640169Y5211081D01*
X2641480Y5214782D01*
X2642981Y5218407D01*
X2644668Y5221947D01*
X2646540Y5225397D01*
X2648590Y5228742D01*
X2650812Y5231975D01*
X2653202Y5235087D01*
X2655750Y5238069D01*
X2658450Y5240914D01*
X2661295Y5243619D01*
X2664279Y5246166D01*
X2667391Y5248554D01*
X2670627Y5250774D01*
X2673972Y5252824D01*
X2677419Y5254698D01*
X2680959Y5256387D01*
X2684584Y5257888D01*
X2688285Y5259196D01*
X2692046Y5260312D01*
X2695862Y5261229D01*
X2699717Y5261942D01*
X2703609Y5262453D01*
X2707520Y5262760D01*
X2711442Y5262864D01*
X2711442Y5262864D01*
X2899892Y5262864D01*
X2899892Y5100309D01*
G37*
D15*
G01*
X1703146Y5882512D03*
G01*
X1753158Y5882512D03*
G01*
X1803145Y5882512D03*
G01*
X1853158Y5882512D03*
D16*
G01*
X1928012Y5957696D03*
G01*
X1928012Y6007709D03*
G01*
X1927987Y6057696D03*
G01*
X1928012Y6107709D03*
D15*
G01*
X1853006Y6182487D03*
G01*
X1802993Y6182487D03*
G01*
X1753006Y6182487D03*
G01*
X1703146Y6182512D03*
D16*
G01*
X1628012Y6107709D03*
G01*
X1627987Y6057696D03*
G01*
X1628012Y6007709D03*
G01*
X1628012Y5957696D03*
D18*
G01*
X1778000Y6032500D03*
D15*
G01*
X2490546Y5882512D03*
G01*
X2540558Y5882512D03*
G01*
X2590545Y5882512D03*
G01*
X2640558Y5882512D03*
D16*
G01*
X2715412Y5957696D03*
G01*
X2715412Y6007709D03*
G01*
X2715386Y6057696D03*
G01*
X2715412Y6107709D03*
D15*
G01*
X2640406Y6182487D03*
G01*
X2590393Y6182487D03*
G01*
X2540406Y6182487D03*
G01*
X2490546Y6182512D03*
D16*
G01*
X2415413Y6107709D03*
G01*
X2415387Y6057696D03*
G01*
X2415413Y6007709D03*
G01*
X2415413Y5957696D03*
D18*
G01*
X2565400Y6032500D03*
D19*
G01*
X2406802Y2895600D03*
G01*
X2266797Y2895600D03*
G01*
X2927502Y2908300D03*
G01*
X2787497Y2908300D03*
D20*
G01*
X1043000Y1612900D03*
G01*
X1242999Y1612900D03*
G01*
X1843100Y1625600D03*
G01*
X2043099Y1625600D03*
G01*
X2643200Y1625600D03*
G01*
X2843199Y1625600D03*
D21*
G01*
X2209800Y7937500D03*
G01*
X1955800Y7937500D03*
G01*
X1701800Y7937500D03*
G01*
X1447800Y7937500D03*
G01*
X1193800Y7937500D03*
D22*
G01*
X939800Y7937500D03*
D23*
G01*
X2730500Y7589697D03*
G01*
X2730500Y7929702D03*
D24*
G01*
X1193800Y3657600D03*
G01*
X1193800Y3911600D03*
G01*
X1193800Y4165600D03*
G01*
X1193800Y4419600D03*
G01*
X1193800Y4673600D03*
G01*
X1193800Y4927600D03*
G01*
X2717800Y5181600D03*
G01*
X2717800Y4927600D03*
G01*
X2717800Y4673600D03*
G01*
X2717800Y4419600D03*
G01*
X2717800Y4165600D03*
G01*
X2717800Y3911600D03*
G01*
X2717800Y3657600D03*
G01*
X1193825Y5181600D03*
D25*
G01*
X2025042Y5951346D03*
G01*
X1412648Y6598462D03*
G01*
X2333271Y7486345D03*
G01*
X2582268Y7888122D03*
G01*
X2266800Y2795219D03*
G01*
X2759966Y3000476D03*
G01*
X2167765Y3486785D03*
G01*
X2106627Y3004616D03*
G01*
X2579296Y6302755D03*
G01*
X2577442Y8793683D03*
G01*
X1157302Y7617815D03*
G01*
X1938886Y8485352D03*
G01*
X1119202Y7269530D03*
G01*
X1511988Y4483785D03*
G01*
X1423799Y2841142D03*
G01*
X1362534Y6472428D03*
G01*
X2319505Y5034178D03*
G01*
X1631393Y4825593D03*
G01*
X1989025Y6260972D03*
G01*
X2490548Y5805652D03*
G01*
X2219200Y4156202D03*
G01*
X1711175Y4837404D03*
M02*
