G04 Layer: BottomLayer*
G04 EasyEDA v6.5.54, 2026-02-28 12:46:57*
G04 7e5d5e850e924c198af6209be1a95435,0dc338707f1441f787e5ddacd88fc9c8,10*
G04 Gerber Generator version 0.2*
G04 Scale: 100 percent, Rotated: No, Reflected: No *
G04 Dimensions in millimeters *
G04 leading zeros omitted , absolute positions ,4 integer and 5 decimal *
%FSLAX45Y45*%
%MOMM*%

%ADD10C,0.2540*%
%ADD11O,0.999998X1.999996*%
%ADD12C,1.5748*%
%ADD13R,1.5748X1.5748*%
%ADD14C,1.5240*%
%ADD15C,0.0107*%
%ADD16C,1.5001*%
%ADD17C,0.6096*%

%LPD*%
D10*
X2717802Y3911600D02*
G01*
X1791997Y4837404D01*
X1711175Y4837404D01*
X2717802Y3657600D02*
G01*
X2219200Y4156202D01*
X1989025Y6260972D02*
G01*
X1989025Y6260947D01*
X2035253Y6260947D01*
X2490548Y5805652D01*
X1193802Y3657600D02*
G01*
X1631393Y4095191D01*
X1631393Y4825593D01*
X2319505Y5034178D02*
G01*
X1816737Y5034178D01*
X1631393Y4848834D01*
X1631393Y4825593D01*
X1362534Y6472428D02*
G01*
X1354101Y6480860D01*
X1354101Y6622719D01*
X2560957Y7829575D01*
X2630375Y7829575D01*
X2730502Y7929702D01*
X1193802Y4927600D02*
G01*
X1083769Y4817567D01*
X1083769Y3181172D01*
X1423799Y2841142D01*
X2717802Y4673600D02*
G01*
X2717802Y4718685D01*
X939802Y6496685D01*
X939802Y7937500D01*
X1193802Y4165600D02*
G01*
X1511988Y4483785D01*
X1938886Y8485352D02*
G01*
X1577825Y8485352D01*
X1046634Y7954162D01*
X1046634Y7342098D01*
X1119202Y7269530D01*
X2577442Y8793683D02*
G01*
X2401801Y8793683D01*
X1590626Y7982508D01*
X1590626Y7920685D01*
X1287757Y7617815D01*
X1157302Y7617815D01*
X2643202Y1625600D02*
G01*
X2829689Y1812086D01*
X2829689Y6052362D01*
X2579296Y6302755D01*
X2043102Y1625600D02*
G01*
X2043102Y2941091D01*
X2106627Y3004616D01*
X1843102Y1625600D02*
G01*
X1843102Y3162122D01*
X2167765Y3486785D01*
X2266800Y2795219D02*
G01*
X2554709Y2795219D01*
X2759966Y3000476D01*
X1193802Y7937500D02*
G01*
X1089408Y7833105D01*
X1089408Y7593456D01*
X1125324Y7557541D01*
X1980948Y7557541D01*
X2311529Y7888122D01*
X2582268Y7888122D01*
X2730502Y7589697D02*
G01*
X2627149Y7486345D01*
X2333271Y7486345D01*
X1412648Y6598462D02*
G01*
X1445389Y6598462D01*
X1445389Y6598462D02*
G01*
X2333271Y7486345D01*
X2717802Y5181600D02*
G01*
X2025042Y5874359D01*
X2025042Y5951346D01*
X2025042Y5951346D02*
G01*
X1445389Y6531000D01*
X1445389Y6598462D01*
D11*
G01*
X1043000Y1612900D03*
G01*
X1242999Y1612900D03*
G01*
X1843100Y1625600D03*
G01*
X2043099Y1625600D03*
G01*
X2643200Y1625600D03*
G01*
X2843199Y1625600D03*
D12*
G01*
X2209800Y7937500D03*
G01*
X1955800Y7937500D03*
G01*
X1701800Y7937500D03*
G01*
X1447800Y7937500D03*
G01*
X1193800Y7937500D03*
D13*
G01*
X939800Y7937500D03*
D14*
G01*
X2730500Y7589697D03*
G01*
X2730500Y7929702D03*
D16*
G01*
X1193800Y3657600D03*
G01*
X1193800Y3911600D03*
G01*
X1193800Y4165600D03*
G01*
X1193800Y4419600D03*
G01*
X1193800Y4673600D03*
G01*
X1193800Y4927600D03*
G01*
X2717800Y5181600D03*
G01*
X2717800Y4927600D03*
G01*
X2717800Y4673600D03*
G01*
X2717800Y4419600D03*
G01*
X2717800Y4165600D03*
G01*
X2717800Y3911600D03*
G01*
X2717800Y3657600D03*
G01*
X1193825Y5181600D03*
D17*
G01*
X2025042Y5951346D03*
G01*
X1412648Y6598462D03*
G01*
X2333271Y7486345D03*
G01*
X2582268Y7888122D03*
G01*
X2266800Y2795219D03*
G01*
X2759966Y3000476D03*
G01*
X2167765Y3486785D03*
G01*
X2106627Y3004616D03*
G01*
X2579296Y6302755D03*
G01*
X2577442Y8793683D03*
G01*
X1157302Y7617815D03*
G01*
X1938886Y8485352D03*
G01*
X1119202Y7269530D03*
G01*
X1511988Y4483785D03*
G01*
X1423799Y2841142D03*
G01*
X1362534Y6472428D03*
G01*
X2319505Y5034178D03*
G01*
X1631393Y4825593D03*
G01*
X1989025Y6260972D03*
G01*
X2490548Y5805652D03*
G01*
X2219200Y4156202D03*
G01*
X1711175Y4837404D03*
M02*
