G04 Layer: TopSilkscreenLayer*
G04 EasyEDA v6.5.54, 2026-02-28 12:46:57*
G04 7e5d5e850e924c198af6209be1a95435,0dc338707f1441f787e5ddacd88fc9c8,10*
G04 Gerber Generator version 0.2*
G04 Scale: 100 percent, Rotated: No, Reflected: No *
G04 Dimensions in millimeters *
G04 leading zeros omitted , absolute positions ,4 integer and 5 decimal *
%FSLAX45Y45*%
%MOMM*%

%ADD10C,0.2032*%
%ADD11C,0.1524*%
%ADD12C,0.0907*%
%ADD13C,0.2540*%
%ADD14C,0.1500*%
%ADD15C,0.2030*%
%ADD16C,0.0141*%

%LPD*%
D10*
X1411986Y1269492D02*
G01*
X1393444Y1288034D01*
X1365757Y1297178D01*
X1328928Y1297178D01*
X1301242Y1288034D01*
X1282700Y1269492D01*
X1282700Y1250950D01*
X1291844Y1232662D01*
X1301242Y1223263D01*
X1319529Y1214120D01*
X1375155Y1195578D01*
X1393444Y1186434D01*
X1402842Y1177289D01*
X1411986Y1158747D01*
X1411986Y1131062D01*
X1393444Y1112520D01*
X1365757Y1103376D01*
X1328928Y1103376D01*
X1301242Y1112520D01*
X1282700Y1131062D01*
X1472945Y1297178D02*
G01*
X1482089Y1288034D01*
X1491487Y1297178D01*
X1482089Y1306576D01*
X1472945Y1297178D01*
X1482089Y1232662D02*
G01*
X1482089Y1103376D01*
X1663192Y1232662D02*
G01*
X1663192Y1084834D01*
X1654047Y1057147D01*
X1644650Y1047750D01*
X1626362Y1038605D01*
X1598676Y1038605D01*
X1580134Y1047750D01*
X1663192Y1204976D02*
G01*
X1644650Y1223263D01*
X1626362Y1232662D01*
X1598676Y1232662D01*
X1580134Y1223263D01*
X1561592Y1204976D01*
X1552447Y1177289D01*
X1552447Y1158747D01*
X1561592Y1131062D01*
X1580134Y1112520D01*
X1598676Y1103376D01*
X1626362Y1103376D01*
X1644650Y1112520D01*
X1663192Y1131062D01*
X1724152Y1297178D02*
G01*
X1724152Y1103376D01*
X1724152Y1195578D02*
G01*
X1751837Y1223263D01*
X1770379Y1232662D01*
X1798065Y1232662D01*
X1816607Y1223263D01*
X1825752Y1195578D01*
X1825752Y1103376D01*
X1914397Y1297178D02*
G01*
X1914397Y1140205D01*
X1923795Y1112520D01*
X1942084Y1103376D01*
X1960625Y1103376D01*
X1886712Y1232662D02*
G01*
X1951481Y1232662D01*
X2150872Y1269492D02*
G01*
X2132329Y1288034D01*
X2104643Y1297178D01*
X2067813Y1297178D01*
X2040127Y1288034D01*
X2021586Y1269492D01*
X2021586Y1250950D01*
X2030729Y1232662D01*
X2040127Y1223263D01*
X2058670Y1214120D01*
X2114041Y1195578D01*
X2132329Y1186434D01*
X2141727Y1177289D01*
X2150872Y1158747D01*
X2150872Y1131062D01*
X2132329Y1112520D01*
X2104643Y1103376D01*
X2067813Y1103376D01*
X2040127Y1112520D01*
X2021586Y1131062D01*
X2221229Y1232662D02*
G01*
X2276602Y1103376D01*
X2331974Y1232662D02*
G01*
X2276602Y1103376D01*
X2258059Y1066292D01*
X2239518Y1047750D01*
X2221229Y1038605D01*
X2211831Y1038605D01*
X2392934Y1232662D02*
G01*
X2392934Y1103376D01*
X2392934Y1195578D02*
G01*
X2420620Y1223263D01*
X2439161Y1232662D01*
X2466847Y1232662D01*
X2485390Y1223263D01*
X2494534Y1195578D01*
X2494534Y1103376D01*
X2666238Y1204976D02*
G01*
X2647950Y1223263D01*
X2629408Y1232662D01*
X2601722Y1232662D01*
X2583179Y1223263D01*
X2564638Y1204976D01*
X2555493Y1177289D01*
X2555493Y1158747D01*
X2564638Y1131062D01*
X2583179Y1112520D01*
X2601722Y1103376D01*
X2629408Y1103376D01*
X2647950Y1112520D01*
X2666238Y1131062D01*
D11*
X1805178Y3099307D02*
G01*
X1799844Y3109721D01*
X1789429Y3120136D01*
X1779270Y3125215D01*
X1758442Y3125215D01*
X1748028Y3120136D01*
X1737613Y3109721D01*
X1732279Y3099307D01*
X1727200Y3083560D01*
X1727200Y3057652D01*
X1732279Y3042157D01*
X1737613Y3031744D01*
X1748028Y3021329D01*
X1758442Y3016250D01*
X1779270Y3016250D01*
X1789429Y3021329D01*
X1799844Y3031744D01*
X1805178Y3042157D01*
X1839468Y3104387D02*
G01*
X1849881Y3109721D01*
X1865376Y3125215D01*
X1865376Y3016250D01*
X1182878Y3073907D02*
G01*
X1177544Y3084321D01*
X1167129Y3094736D01*
X1156970Y3099815D01*
X1136142Y3099815D01*
X1125728Y3094736D01*
X1115313Y3084321D01*
X1109979Y3073907D01*
X1104900Y3058160D01*
X1104900Y3032252D01*
X1109979Y3016757D01*
X1115313Y3006344D01*
X1125728Y2995929D01*
X1136142Y2990850D01*
X1156970Y2990850D01*
X1167129Y2995929D01*
X1177544Y3006344D01*
X1182878Y3016757D01*
X1222247Y3073907D02*
G01*
X1222247Y3078987D01*
X1227581Y3089402D01*
X1232662Y3094736D01*
X1243076Y3099815D01*
X1263904Y3099815D01*
X1274318Y3094736D01*
X1279397Y3089402D01*
X1284731Y3078987D01*
X1284731Y3068573D01*
X1279397Y3058160D01*
X1268984Y3042665D01*
X1217168Y2990850D01*
X1289812Y2990850D01*
X1195070Y2083815D02*
G01*
X1195070Y2000757D01*
X1189736Y1985010D01*
X1184655Y1979929D01*
X1174242Y1974850D01*
X1163828Y1974850D01*
X1153413Y1979929D01*
X1148079Y1985010D01*
X1143000Y2000757D01*
X1143000Y2011171D01*
X1229360Y2062987D02*
G01*
X1239520Y2068321D01*
X1255268Y2083815D01*
X1255268Y1974850D01*
X1995170Y2096515D02*
G01*
X1995170Y2013457D01*
X1989836Y1997710D01*
X1984756Y1992629D01*
X1974341Y1987550D01*
X1963927Y1987550D01*
X1953513Y1992629D01*
X1948179Y1997710D01*
X1943100Y2013457D01*
X1943100Y2023871D01*
X2034540Y2070607D02*
G01*
X2034540Y2075687D01*
X2039620Y2086102D01*
X2044954Y2091436D01*
X2055368Y2096515D01*
X2076195Y2096515D01*
X2086609Y2091436D01*
X2091690Y2086102D01*
X2096770Y2075687D01*
X2096770Y2065273D01*
X2091690Y2054860D01*
X2081275Y2039365D01*
X2029459Y1987550D01*
X2102104Y1987550D01*
X2795270Y2096515D02*
G01*
X2795270Y2013457D01*
X2789936Y1997710D01*
X2784856Y1992629D01*
X2774441Y1987550D01*
X2764027Y1987550D01*
X2753613Y1992629D01*
X2748279Y1997710D01*
X2743200Y2013457D01*
X2743200Y2023871D01*
X2839720Y2096515D02*
G01*
X2896870Y2096515D01*
X2865881Y2054860D01*
X2881375Y2054860D01*
X2891790Y2049779D01*
X2896870Y2044700D01*
X2902204Y2028952D01*
X2902204Y2018537D01*
X2896870Y2003044D01*
X2886709Y1992629D01*
X2870961Y1987550D01*
X2855468Y1987550D01*
X2839720Y1992629D01*
X2834640Y1997710D01*
X2829559Y2008123D01*
X1435760Y9246615D02*
G01*
X1435760Y9137650D01*
X1435760Y9137650D02*
G01*
X1497990Y9137650D01*
X1532280Y9246615D02*
G01*
X1532280Y9137650D01*
X1532280Y9246615D02*
G01*
X1599844Y9246615D01*
X1532280Y9194800D02*
G01*
X1573936Y9194800D01*
X1532280Y9137650D02*
G01*
X1599844Y9137650D01*
X1634134Y9246615D02*
G01*
X1634134Y9137650D01*
X1634134Y9246615D02*
G01*
X1670710Y9246615D01*
X1686204Y9241536D01*
X1696618Y9231121D01*
X1701698Y9220708D01*
X1707032Y9204960D01*
X1707032Y9179052D01*
X1701698Y9163558D01*
X1696618Y9153144D01*
X1686204Y9142729D01*
X1670710Y9137650D01*
X1634134Y9137650D01*
X1741322Y9225787D02*
G01*
X1751736Y9231121D01*
X1767230Y9246615D01*
X1767230Y9137650D01*
X1765300Y9767315D02*
G01*
X1765300Y9658350D01*
X1765300Y9658350D02*
G01*
X1827529Y9658350D01*
X1861820Y9767315D02*
G01*
X1861820Y9658350D01*
X1861820Y9767315D02*
G01*
X1929384Y9767315D01*
X1861820Y9715500D02*
G01*
X1903476Y9715500D01*
X1861820Y9658350D02*
G01*
X1929384Y9658350D01*
X1963674Y9767315D02*
G01*
X1963674Y9658350D01*
X1963674Y9767315D02*
G01*
X2000250Y9767315D01*
X2015743Y9762236D01*
X2026158Y9751821D01*
X2031238Y9741408D01*
X2036572Y9725660D01*
X2036572Y9699752D01*
X2031238Y9684258D01*
X2026158Y9673844D01*
X2015743Y9663429D01*
X2000250Y9658350D01*
X1963674Y9658350D01*
X2075941Y9741408D02*
G01*
X2075941Y9746487D01*
X2081275Y9756902D01*
X2086356Y9762236D01*
X2096770Y9767315D01*
X2117597Y9767315D01*
X2128011Y9762236D01*
X2133091Y9756902D01*
X2138425Y9746487D01*
X2138425Y9736074D01*
X2133091Y9725660D01*
X2122677Y9710165D01*
X2070861Y9658350D01*
X2143506Y9658350D01*
X2426360Y9246615D02*
G01*
X2426360Y9137650D01*
X2426360Y9137650D02*
G01*
X2488590Y9137650D01*
X2522880Y9246615D02*
G01*
X2522880Y9137650D01*
X2522880Y9246615D02*
G01*
X2590444Y9246615D01*
X2522880Y9194800D02*
G01*
X2564536Y9194800D01*
X2522880Y9137650D02*
G01*
X2590444Y9137650D01*
X2624734Y9246615D02*
G01*
X2624734Y9137650D01*
X2624734Y9246615D02*
G01*
X2661310Y9246615D01*
X2676804Y9241536D01*
X2687218Y9231121D01*
X2692298Y9220708D01*
X2697632Y9204960D01*
X2697632Y9179052D01*
X2692298Y9163558D01*
X2687218Y9153144D01*
X2676804Y9142729D01*
X2661310Y9137650D01*
X2624734Y9137650D01*
X2742336Y9246615D02*
G01*
X2799486Y9246615D01*
X2768244Y9204960D01*
X2783738Y9204960D01*
X2794152Y9199879D01*
X2799486Y9194800D01*
X2804566Y9179052D01*
X2804566Y9168637D01*
X2799486Y9153144D01*
X2789072Y9142729D01*
X2773324Y9137650D01*
X2757830Y9137650D01*
X2742336Y9142729D01*
X2737002Y9147810D01*
X2731922Y9158224D01*
X1143660Y8751315D02*
G01*
X1143660Y8642350D01*
X1143660Y8642350D02*
G01*
X1205890Y8642350D01*
X1240180Y8751315D02*
G01*
X1240180Y8642350D01*
X1240180Y8751315D02*
G01*
X1307744Y8751315D01*
X1240180Y8699500D02*
G01*
X1281836Y8699500D01*
X1240180Y8642350D02*
G01*
X1307744Y8642350D01*
X1342034Y8751315D02*
G01*
X1342034Y8642350D01*
X1342034Y8751315D02*
G01*
X1378610Y8751315D01*
X1394104Y8746236D01*
X1404518Y8735821D01*
X1409598Y8725408D01*
X1414932Y8709660D01*
X1414932Y8683752D01*
X1409598Y8668258D01*
X1404518Y8657844D01*
X1394104Y8647429D01*
X1378610Y8642350D01*
X1342034Y8642350D01*
X1501038Y8751315D02*
G01*
X1449222Y8678671D01*
X1527200Y8678671D01*
X1501038Y8751315D02*
G01*
X1501038Y8642350D01*
X1918360Y8751315D02*
G01*
X1918360Y8642350D01*
X1918360Y8642350D02*
G01*
X1980590Y8642350D01*
X2014880Y8751315D02*
G01*
X2014880Y8642350D01*
X2014880Y8751315D02*
G01*
X2082444Y8751315D01*
X2014880Y8699500D02*
G01*
X2056536Y8699500D01*
X2014880Y8642350D02*
G01*
X2082444Y8642350D01*
X2116734Y8751315D02*
G01*
X2116734Y8642350D01*
X2116734Y8751315D02*
G01*
X2153310Y8751315D01*
X2168804Y8746236D01*
X2179218Y8735821D01*
X2184298Y8725408D01*
X2189632Y8709660D01*
X2189632Y8683752D01*
X2184298Y8668258D01*
X2179218Y8657844D01*
X2168804Y8647429D01*
X2153310Y8642350D01*
X2116734Y8642350D01*
X2286152Y8751315D02*
G01*
X2234336Y8751315D01*
X2229002Y8704579D01*
X2234336Y8709660D01*
X2249830Y8714994D01*
X2265324Y8714994D01*
X2281072Y8709660D01*
X2291486Y8699500D01*
X2296566Y8683752D01*
X2296566Y8673337D01*
X2291486Y8657844D01*
X2281072Y8647429D01*
X2265324Y8642350D01*
X2249830Y8642350D01*
X2234336Y8647429D01*
X2229002Y8652510D01*
X2223922Y8662924D01*
X2680360Y8751315D02*
G01*
X2680360Y8642350D01*
X2680360Y8642350D02*
G01*
X2742590Y8642350D01*
X2776880Y8751315D02*
G01*
X2776880Y8642350D01*
X2776880Y8751315D02*
G01*
X2844444Y8751315D01*
X2776880Y8699500D02*
G01*
X2818536Y8699500D01*
X2776880Y8642350D02*
G01*
X2844444Y8642350D01*
X2878734Y8751315D02*
G01*
X2878734Y8642350D01*
X2878734Y8751315D02*
G01*
X2915310Y8751315D01*
X2930804Y8746236D01*
X2941218Y8735821D01*
X2946298Y8725408D01*
X2951632Y8709660D01*
X2951632Y8683752D01*
X2946298Y8668258D01*
X2941218Y8657844D01*
X2930804Y8647429D01*
X2915310Y8642350D01*
X2878734Y8642350D01*
X3048152Y8735821D02*
G01*
X3043072Y8746236D01*
X3027324Y8751315D01*
X3016910Y8751315D01*
X3001416Y8746236D01*
X2991002Y8730487D01*
X2985922Y8704579D01*
X2985922Y8678671D01*
X2991002Y8657844D01*
X3001416Y8647429D01*
X3016910Y8642350D01*
X3022244Y8642350D01*
X3037738Y8647429D01*
X3048152Y8657844D01*
X3053486Y8673337D01*
X3053486Y8678671D01*
X3048152Y8694165D01*
X3037738Y8704579D01*
X3022244Y8709660D01*
X3016910Y8709660D01*
X3001416Y8704579D01*
X2991002Y8694165D01*
X2985922Y8678671D01*
X1549400Y8205215D02*
G01*
X1549400Y8096250D01*
X1549400Y8205215D02*
G01*
X1596136Y8205215D01*
X1611629Y8200136D01*
X1616963Y8194802D01*
X1622044Y8184387D01*
X1622044Y8168894D01*
X1616963Y8158479D01*
X1611629Y8153400D01*
X1596136Y8148065D01*
X1549400Y8148065D01*
X1656334Y8184387D02*
G01*
X1666747Y8189721D01*
X1682495Y8205215D01*
X1682495Y8096250D01*
X1174242Y6287515D02*
G01*
X1163828Y6282436D01*
X1153413Y6272021D01*
X1148079Y6261607D01*
X1143000Y6245860D01*
X1143000Y6219952D01*
X1148079Y6204457D01*
X1153413Y6194044D01*
X1163828Y6183629D01*
X1174242Y6178550D01*
X1195070Y6178550D01*
X1205229Y6183629D01*
X1215644Y6194044D01*
X1220978Y6204457D01*
X1226057Y6219952D01*
X1226057Y6245860D01*
X1220978Y6261607D01*
X1215644Y6272021D01*
X1205229Y6282436D01*
X1195070Y6287515D01*
X1174242Y6287515D01*
X1189736Y6199123D02*
G01*
X1220978Y6168136D01*
X1260347Y6266687D02*
G01*
X1270762Y6272021D01*
X1286510Y6287515D01*
X1286510Y6178550D01*
X1193800Y6833615D02*
G01*
X1193800Y6724650D01*
X1193800Y6833615D02*
G01*
X1240536Y6833615D01*
X1256029Y6828536D01*
X1261363Y6823202D01*
X1266444Y6812787D01*
X1266444Y6802373D01*
X1261363Y6791960D01*
X1256029Y6786879D01*
X1240536Y6781800D01*
X1193800Y6781800D01*
X1230121Y6781800D02*
G01*
X1266444Y6724650D01*
X1300734Y6812787D02*
G01*
X1311147Y6818121D01*
X1326895Y6833615D01*
X1326895Y6724650D01*
X2006600Y7709915D02*
G01*
X2006600Y7600950D01*
X2006600Y7709915D02*
G01*
X2053336Y7709915D01*
X2068829Y7704836D01*
X2074163Y7699502D01*
X2079243Y7689087D01*
X2079243Y7678673D01*
X2074163Y7668260D01*
X2068829Y7663179D01*
X2053336Y7658100D01*
X2006600Y7658100D01*
X2042922Y7658100D02*
G01*
X2079243Y7600950D01*
X2118868Y7684008D02*
G01*
X2118868Y7689087D01*
X2123947Y7699502D01*
X2129281Y7704836D01*
X2139695Y7709915D01*
X2160270Y7709915D01*
X2170684Y7704836D01*
X2176018Y7699502D01*
X2181097Y7689087D01*
X2181097Y7678673D01*
X2176018Y7668260D01*
X2165604Y7652765D01*
X2113534Y7600950D01*
X2186431Y7600950D01*
X1257300Y7722615D02*
G01*
X1257300Y7613650D01*
X1257300Y7722615D02*
G01*
X1304036Y7722615D01*
X1319529Y7717536D01*
X1324863Y7712202D01*
X1329944Y7701787D01*
X1329944Y7691373D01*
X1324863Y7680960D01*
X1319529Y7675879D01*
X1304036Y7670800D01*
X1257300Y7670800D01*
X1293621Y7670800D02*
G01*
X1329944Y7613650D01*
X1374647Y7722615D02*
G01*
X1431797Y7722615D01*
X1400810Y7680960D01*
X1416304Y7680960D01*
X1426718Y7675879D01*
X1431797Y7670800D01*
X1437131Y7655052D01*
X1437131Y7644637D01*
X1431797Y7629144D01*
X1421384Y7618729D01*
X1405889Y7613650D01*
X1390395Y7613650D01*
X1374647Y7618729D01*
X1369568Y7623810D01*
X1364234Y7634223D01*
X1968500Y7240015D02*
G01*
X1968500Y7131050D01*
X1968500Y7240015D02*
G01*
X2015236Y7240015D01*
X2030729Y7234936D01*
X2036063Y7229602D01*
X2041143Y7219187D01*
X2041143Y7208773D01*
X2036063Y7198360D01*
X2030729Y7193279D01*
X2015236Y7188200D01*
X1968500Y7188200D01*
X2004822Y7188200D02*
G01*
X2041143Y7131050D01*
X2127504Y7240015D02*
G01*
X2075434Y7167371D01*
X2153411Y7167371D01*
X2127504Y7240015D02*
G01*
X2127504Y7131050D01*
X1219200Y7252715D02*
G01*
X1219200Y7143750D01*
X1219200Y7252715D02*
G01*
X1265936Y7252715D01*
X1281429Y7247636D01*
X1286763Y7242302D01*
X1291844Y7231887D01*
X1291844Y7221473D01*
X1286763Y7211060D01*
X1281429Y7205979D01*
X1265936Y7200900D01*
X1219200Y7200900D01*
X1255521Y7200900D02*
G01*
X1291844Y7143750D01*
X1388618Y7252715D02*
G01*
X1336547Y7252715D01*
X1331468Y7205979D01*
X1336547Y7211060D01*
X1352295Y7216394D01*
X1367789Y7216394D01*
X1383284Y7211060D01*
X1393697Y7200900D01*
X1399031Y7185152D01*
X1399031Y7174737D01*
X1393697Y7159244D01*
X1383284Y7148829D01*
X1367789Y7143750D01*
X1352295Y7143750D01*
X1336547Y7148829D01*
X1331468Y7153910D01*
X1326134Y7164323D01*
X2679700Y6808215D02*
G01*
X2679700Y6699250D01*
X2679700Y6808215D02*
G01*
X2726436Y6808215D01*
X2741929Y6803136D01*
X2747263Y6797802D01*
X2752343Y6787387D01*
X2752343Y6776973D01*
X2747263Y6766560D01*
X2741929Y6761479D01*
X2726436Y6756400D01*
X2679700Y6756400D01*
X2716022Y6756400D02*
G01*
X2752343Y6699250D01*
X2849118Y6792721D02*
G01*
X2843784Y6803136D01*
X2828290Y6808215D01*
X2817875Y6808215D01*
X2802381Y6803136D01*
X2791968Y6787387D01*
X2786634Y6761479D01*
X2786634Y6735571D01*
X2791968Y6714744D01*
X2802381Y6704329D01*
X2817875Y6699250D01*
X2823209Y6699250D01*
X2838704Y6704329D01*
X2849118Y6714744D01*
X2854197Y6730237D01*
X2854197Y6735571D01*
X2849118Y6751065D01*
X2838704Y6761479D01*
X2823209Y6766560D01*
X2817875Y6766560D01*
X2802381Y6761479D01*
X2791968Y6751065D01*
X2786634Y6735571D01*
X1384300Y2655315D02*
G01*
X1384300Y2546350D01*
X1384300Y2655315D02*
G01*
X1431036Y2655315D01*
X1446529Y2650236D01*
X1451863Y2644902D01*
X1456944Y2634487D01*
X1456944Y2624073D01*
X1451863Y2613660D01*
X1446529Y2608579D01*
X1431036Y2603500D01*
X1384300Y2603500D01*
X1420621Y2603500D02*
G01*
X1456944Y2546350D01*
X1564131Y2655315D02*
G01*
X1512062Y2546350D01*
X1491234Y2655315D02*
G01*
X1564131Y2655315D01*
X2362200Y2642615D02*
G01*
X2362200Y2533650D01*
X2362200Y2642615D02*
G01*
X2408936Y2642615D01*
X2424429Y2637536D01*
X2429763Y2632202D01*
X2434843Y2621787D01*
X2434843Y2611373D01*
X2429763Y2600960D01*
X2424429Y2595879D01*
X2408936Y2590800D01*
X2362200Y2590800D01*
X2398522Y2590800D02*
G01*
X2434843Y2533650D01*
X2495295Y2642615D02*
G01*
X2479547Y2637536D01*
X2474468Y2627121D01*
X2474468Y2616707D01*
X2479547Y2606294D01*
X2489961Y2600960D01*
X2510790Y2595879D01*
X2526284Y2590800D01*
X2536697Y2580386D01*
X2542031Y2569971D01*
X2542031Y2554223D01*
X2536697Y2543810D01*
X2531618Y2538729D01*
X2515870Y2533650D01*
X2495295Y2533650D01*
X2479547Y2538729D01*
X2474468Y2543810D01*
X2469134Y2554223D01*
X2469134Y2569971D01*
X2474468Y2580386D01*
X2484881Y2590800D01*
X2500375Y2595879D01*
X2521204Y2600960D01*
X2531618Y2606294D01*
X2536697Y2616707D01*
X2536697Y2627121D01*
X2531618Y2637536D01*
X2515870Y2642615D01*
X2495295Y2642615D01*
X2743200Y7354315D02*
G01*
X2743200Y7245350D01*
X2743200Y7354315D02*
G01*
X2789936Y7354315D01*
X2805429Y7349236D01*
X2810763Y7343902D01*
X2815843Y7333487D01*
X2815843Y7323073D01*
X2810763Y7312660D01*
X2805429Y7307579D01*
X2789936Y7302500D01*
X2743200Y7302500D01*
X2779522Y7302500D02*
G01*
X2815843Y7245350D01*
X2917697Y7317994D02*
G01*
X2912618Y7302500D01*
X2902204Y7292086D01*
X2886709Y7286752D01*
X2881375Y7286752D01*
X2865881Y7292086D01*
X2855468Y7302500D01*
X2850134Y7317994D01*
X2850134Y7323073D01*
X2855468Y7338821D01*
X2865881Y7349236D01*
X2881375Y7354315D01*
X2886709Y7354315D01*
X2902204Y7349236D01*
X2912618Y7338821D01*
X2917697Y7317994D01*
X2917697Y7292086D01*
X2912618Y7265923D01*
X2902204Y7250429D01*
X2886709Y7245350D01*
X2876295Y7245350D01*
X2860547Y7250429D01*
X2855468Y7260844D01*
X2717800Y8146618D02*
G01*
X2717800Y8037652D01*
X2717800Y8146618D02*
G01*
X2764536Y8146618D01*
X2780029Y8141538D01*
X2785363Y8136204D01*
X2790443Y8125790D01*
X2790443Y8115376D01*
X2785363Y8104962D01*
X2780029Y8099882D01*
X2764536Y8094802D01*
X2717800Y8094802D01*
X2754122Y8094802D02*
G01*
X2790443Y8037652D01*
X2824734Y8125790D02*
G01*
X2835147Y8131124D01*
X2850895Y8146618D01*
X2850895Y8037652D01*
X2916174Y8146618D02*
G01*
X2900679Y8141538D01*
X2890265Y8125790D01*
X2885186Y8099882D01*
X2885186Y8084388D01*
X2890265Y8058226D01*
X2900679Y8042732D01*
X2916174Y8037652D01*
X2926588Y8037652D01*
X2942336Y8042732D01*
X2952750Y8058226D01*
X2957829Y8084388D01*
X2957829Y8099882D01*
X2952750Y8125790D01*
X2942336Y8141538D01*
X2926588Y8146618D01*
X2916174Y8146618D01*
X1930392Y5779515D02*
G01*
X1930392Y5701537D01*
X1935472Y5686044D01*
X1945886Y5675629D01*
X1961634Y5670550D01*
X1972048Y5670550D01*
X1987542Y5675629D01*
X1997956Y5686044D01*
X2003036Y5701537D01*
X2003036Y5779515D01*
X2037326Y5758687D02*
G01*
X2047740Y5764021D01*
X2063488Y5779515D01*
X2063488Y5670550D01*
D12*
X914323Y5118092D02*
G01*
X986452Y5118092D01*
X914323Y5118092D02*
G01*
X914323Y5142133D01*
X917762Y5152440D01*
X924631Y5159321D01*
X931501Y5162748D01*
X941804Y5166174D01*
X958979Y5166174D01*
X969281Y5162748D01*
X976144Y5159321D01*
X983020Y5152440D01*
X986452Y5142133D01*
X986452Y5118092D01*
X914323Y5209453D02*
G01*
X917762Y5199146D01*
X928062Y5192288D01*
X945240Y5188838D01*
X955542Y5188838D01*
X972713Y5192288D01*
X983020Y5199146D01*
X986452Y5209453D01*
X986452Y5216329D01*
X983020Y5226636D01*
X972713Y5233494D01*
X955542Y5236931D01*
X945240Y5236931D01*
X928062Y5233494D01*
X917762Y5226636D01*
X914323Y5216329D01*
X914323Y5209453D01*
X914323Y4876792D02*
G01*
X986452Y4876792D01*
X914323Y4876792D02*
G01*
X914323Y4900833D01*
X917762Y4911140D01*
X924631Y4918021D01*
X931501Y4921448D01*
X941804Y4924874D01*
X958979Y4924874D01*
X969281Y4921448D01*
X976144Y4918021D01*
X983020Y4911140D01*
X986452Y4900833D01*
X986452Y4876792D01*
X928062Y4947538D02*
G01*
X924631Y4954414D01*
X914323Y4964722D01*
X986452Y4964722D01*
X914323Y4622792D02*
G01*
X986452Y4622792D01*
X914323Y4622792D02*
G01*
X914323Y4646833D01*
X917762Y4657140D01*
X924631Y4664021D01*
X931501Y4667448D01*
X941804Y4670874D01*
X958979Y4670874D01*
X969281Y4667448D01*
X976144Y4664021D01*
X983020Y4657140D01*
X986452Y4646833D01*
X986452Y4622792D01*
X931501Y4696988D02*
G01*
X928062Y4696988D01*
X921194Y4700414D01*
X917762Y4703846D01*
X914323Y4710722D01*
X914323Y4724460D01*
X917762Y4731336D01*
X921194Y4734768D01*
X928062Y4738194D01*
X934933Y4738194D01*
X941804Y4734768D01*
X952103Y4727887D01*
X986452Y4693538D01*
X986452Y4741631D01*
X914323Y4368792D02*
G01*
X986452Y4368792D01*
X914323Y4368792D02*
G01*
X914323Y4392833D01*
X917762Y4403140D01*
X924631Y4410021D01*
X931501Y4413448D01*
X941804Y4416874D01*
X958979Y4416874D01*
X969281Y4413448D01*
X976144Y4410021D01*
X983020Y4403140D01*
X986452Y4392833D01*
X986452Y4368792D01*
X914323Y4446414D02*
G01*
X914323Y4484194D01*
X941804Y4463590D01*
X941804Y4473887D01*
X945240Y4480768D01*
X948672Y4484194D01*
X958979Y4487631D01*
X965850Y4487631D01*
X976144Y4484194D01*
X983020Y4477336D01*
X986452Y4467029D01*
X986452Y4456722D01*
X983020Y4446414D01*
X979589Y4442988D01*
X972713Y4439538D01*
X914323Y4114792D02*
G01*
X986452Y4114792D01*
X914323Y4114792D02*
G01*
X914323Y4138833D01*
X917762Y4149140D01*
X924631Y4156021D01*
X931501Y4159448D01*
X941804Y4162874D01*
X958979Y4162874D01*
X969281Y4159448D01*
X976144Y4156021D01*
X983020Y4149140D01*
X986452Y4138833D01*
X986452Y4114792D01*
X914323Y4219887D02*
G01*
X962405Y4185538D01*
X962405Y4237062D01*
X914323Y4219887D02*
G01*
X986452Y4219887D01*
X914323Y3860792D02*
G01*
X986452Y3860792D01*
X914323Y3860792D02*
G01*
X914323Y3884833D01*
X917762Y3895140D01*
X924631Y3902021D01*
X931501Y3905448D01*
X941804Y3908874D01*
X958979Y3908874D01*
X969281Y3905448D01*
X976144Y3902021D01*
X983020Y3895140D01*
X986452Y3884833D01*
X986452Y3860792D01*
X914323Y3972768D02*
G01*
X914323Y3938414D01*
X945240Y3934988D01*
X941804Y3938414D01*
X938364Y3948722D01*
X938364Y3959029D01*
X941804Y3969336D01*
X948672Y3976194D01*
X958979Y3979631D01*
X965850Y3979631D01*
X976144Y3976194D01*
X983020Y3969336D01*
X986452Y3959029D01*
X986452Y3948722D01*
X983020Y3938414D01*
X979589Y3934988D01*
X972713Y3931538D01*
X901623Y3606792D02*
G01*
X973752Y3606792D01*
X901623Y3606792D02*
G01*
X901623Y3630833D01*
X905062Y3641140D01*
X911931Y3648021D01*
X918801Y3651448D01*
X929104Y3654874D01*
X946279Y3654874D01*
X956581Y3651448D01*
X963444Y3648021D01*
X970320Y3641140D01*
X973752Y3630833D01*
X973752Y3606792D01*
X911931Y3718768D02*
G01*
X905062Y3715336D01*
X901623Y3705029D01*
X901623Y3698153D01*
X905062Y3687846D01*
X915362Y3680988D01*
X932540Y3677538D01*
X949705Y3677538D01*
X963444Y3680988D01*
X970320Y3687846D01*
X973752Y3698153D01*
X973752Y3701590D01*
X970320Y3711887D01*
X963444Y3718768D01*
X953150Y3722194D01*
X949705Y3722194D01*
X939403Y3718768D01*
X932540Y3711887D01*
X929104Y3701590D01*
X929104Y3698153D01*
X932540Y3687846D01*
X939403Y3680988D01*
X949705Y3677538D01*
X2933603Y3594092D02*
G01*
X3005731Y3594092D01*
X2933603Y3594092D02*
G01*
X2933603Y3618133D01*
X2937032Y3628440D01*
X2943910Y3635298D01*
X2950768Y3638730D01*
X2961076Y3642179D01*
X2978259Y3642179D01*
X2988566Y3638730D01*
X2995424Y3635298D01*
X3002305Y3628440D01*
X3005731Y3618133D01*
X3005731Y3594092D01*
X2933603Y3712926D02*
G01*
X3005731Y3678595D01*
X2933603Y3664838D02*
G01*
X2933603Y3712926D01*
X2933603Y3860792D02*
G01*
X3005731Y3860792D01*
X2933603Y3860792D02*
G01*
X2933603Y3884833D01*
X2937032Y3895140D01*
X2943910Y3901998D01*
X2950768Y3905430D01*
X2961076Y3908879D01*
X2978259Y3908879D01*
X2988566Y3905430D01*
X2995424Y3901998D01*
X3002305Y3895140D01*
X3005731Y3884833D01*
X3005731Y3860792D01*
X2933603Y3948704D02*
G01*
X2937032Y3938402D01*
X2943910Y3934988D01*
X2950768Y3934988D01*
X2957647Y3938402D01*
X2961076Y3945295D01*
X2964502Y3959011D01*
X2967954Y3969318D01*
X2974809Y3976217D01*
X2981690Y3979626D01*
X2991998Y3979626D01*
X2998850Y3976217D01*
X3002305Y3972750D01*
X3005731Y3962460D01*
X3005731Y3948704D01*
X3002305Y3938402D01*
X2998850Y3934988D01*
X2991998Y3931538D01*
X2981690Y3931538D01*
X2974809Y3934988D01*
X2967954Y3941846D01*
X2964502Y3952153D01*
X2961076Y3965910D01*
X2957647Y3972750D01*
X2950768Y3976217D01*
X2943910Y3976217D01*
X2937032Y3972750D01*
X2933603Y3962460D01*
X2933603Y3948704D01*
X2933603Y4114794D02*
G01*
X3005731Y4114794D01*
X2933603Y4114794D02*
G01*
X2933603Y4138836D01*
X2937032Y4149143D01*
X2943910Y4156001D01*
X2950768Y4159432D01*
X2961076Y4162882D01*
X2978259Y4162882D01*
X2988566Y4159432D01*
X2995424Y4156001D01*
X3002305Y4149143D01*
X3005731Y4138836D01*
X3005731Y4114794D01*
X2957647Y4230220D02*
G01*
X2967954Y4226753D01*
X2974809Y4219912D01*
X2978259Y4209605D01*
X2978259Y4206156D01*
X2974809Y4195848D01*
X2967954Y4188990D01*
X2957647Y4185541D01*
X2954218Y4185541D01*
X2943910Y4188990D01*
X2937032Y4195848D01*
X2933603Y4206156D01*
X2933603Y4209605D01*
X2937032Y4219912D01*
X2943910Y4226753D01*
X2957647Y4230220D01*
X2974809Y4230220D01*
X2991998Y4226753D01*
X3002305Y4219912D01*
X3005731Y4209605D01*
X3005731Y4202706D01*
X3002305Y4192404D01*
X2995424Y4188990D01*
X2933603Y4343402D02*
G01*
X3005731Y4343402D01*
X2933603Y4343402D02*
G01*
X2933603Y4367443D01*
X2937032Y4377750D01*
X2943910Y4384608D01*
X2950768Y4388043D01*
X2961076Y4391492D01*
X2978259Y4391492D01*
X2988566Y4388043D01*
X2995424Y4384608D01*
X3002305Y4377750D01*
X3005731Y4367443D01*
X3005731Y4343402D01*
X2947339Y4414149D02*
G01*
X2943910Y4421014D01*
X2933603Y4431314D01*
X3005731Y4431314D01*
X2933603Y4474611D02*
G01*
X2937032Y4464304D01*
X2947339Y4457428D01*
X2964502Y4454019D01*
X2974809Y4454019D01*
X2991998Y4457428D01*
X3002305Y4464304D01*
X3005731Y4474611D01*
X3005731Y4481469D01*
X3002305Y4491776D01*
X2991998Y4498642D01*
X2974809Y4502083D01*
X2964502Y4502083D01*
X2947339Y4498642D01*
X2937032Y4491776D01*
X2933603Y4481469D01*
X2933603Y4474611D01*
X2933626Y4566140D02*
G01*
X2933626Y4603915D01*
X2961081Y4583323D01*
X2961081Y4593630D01*
X2964548Y4600488D01*
X2967956Y4603915D01*
X2978264Y4607369D01*
X2985140Y4607369D01*
X2995424Y4603915D01*
X3002305Y4597062D01*
X3005731Y4586754D01*
X3005731Y4576447D01*
X3002305Y4566140D01*
X2998878Y4562713D01*
X2991998Y4559282D01*
X2933626Y4630028D02*
G01*
X3005731Y4657501D01*
X2933626Y4684996D02*
G01*
X3005731Y4657501D01*
X2933626Y4714537D02*
G01*
X2933626Y4752312D01*
X2961081Y4731697D01*
X2961081Y4742004D01*
X2964548Y4748885D01*
X2967956Y4752312D01*
X2978264Y4755743D01*
X2985140Y4755743D01*
X2995424Y4752312D01*
X3002305Y4745436D01*
X3005731Y4735128D01*
X3005731Y4724844D01*
X3002305Y4714537D01*
X2998878Y4711082D01*
X2991998Y4707656D01*
X2950768Y4864811D02*
G01*
X2943910Y4861384D01*
X2937032Y4854503D01*
X2933603Y4847645D01*
X2933603Y4833889D01*
X2937032Y4827054D01*
X2943910Y4820155D01*
X2950768Y4816746D01*
X2961076Y4813297D01*
X2978259Y4813297D01*
X2988566Y4816746D01*
X2995424Y4820155D01*
X3002305Y4827054D01*
X3005731Y4833889D01*
X3005731Y4847645D01*
X3002305Y4854503D01*
X2995424Y4861384D01*
X2988566Y4864811D01*
X2978259Y4864811D01*
X2978259Y4847645D02*
G01*
X2978259Y4864811D01*
X2933603Y4887493D02*
G01*
X3005731Y4887493D01*
X2933603Y4887493D02*
G01*
X3005731Y4935557D01*
X2933603Y4935557D02*
G01*
X3005731Y4935557D01*
X2933603Y4958245D02*
G01*
X3005731Y4958245D01*
X2933603Y4958245D02*
G01*
X2933603Y4982286D01*
X2937032Y4992593D01*
X2943910Y4999451D01*
X2950768Y5002877D01*
X2961076Y5006327D01*
X2978259Y5006327D01*
X2988566Y5002877D01*
X2995424Y4999451D01*
X3002305Y4992593D01*
X3005731Y4982286D01*
X3005731Y4958245D01*
X2933537Y5133804D02*
G01*
X2933537Y5099514D01*
X2964525Y5096212D01*
X2961223Y5099514D01*
X2957667Y5109928D01*
X2957667Y5120088D01*
X2961223Y5130505D01*
X2968081Y5137363D01*
X2978241Y5140662D01*
X2985099Y5140662D01*
X2995513Y5137363D01*
X3002371Y5130505D01*
X3005673Y5120088D01*
X3005673Y5109928D01*
X3002371Y5099514D01*
X2998815Y5096212D01*
X2991957Y5092656D01*
X2933537Y5163522D02*
G01*
X3005673Y5190954D01*
X2933537Y5218386D02*
G01*
X3005673Y5190954D01*
D11*
X1756244Y6372771D02*
G01*
X1756244Y6294793D01*
X1761324Y6279299D01*
X1771738Y6268885D01*
X1787486Y6263805D01*
X1797900Y6263805D01*
X1813394Y6268885D01*
X1823808Y6279299D01*
X1828888Y6294793D01*
X1828888Y6372771D01*
X1868512Y6346863D02*
G01*
X1868512Y6351943D01*
X1873592Y6362357D01*
X1878926Y6367691D01*
X1889340Y6372771D01*
X1909914Y6372771D01*
X1920328Y6367691D01*
X1925662Y6362357D01*
X1930742Y6351943D01*
X1930742Y6341529D01*
X1925662Y6331115D01*
X1915248Y6315621D01*
X1863178Y6263805D01*
X1936076Y6263805D01*
X2543644Y6372771D02*
G01*
X2543644Y6294793D01*
X2548724Y6279299D01*
X2559138Y6268885D01*
X2574886Y6263805D01*
X2585300Y6263805D01*
X2600794Y6268885D01*
X2611208Y6279299D01*
X2616288Y6294793D01*
X2616288Y6372771D01*
X2660992Y6372771D02*
G01*
X2718142Y6372771D01*
X2687154Y6331115D01*
X2702648Y6331115D01*
X2713062Y6326035D01*
X2718142Y6320955D01*
X2723476Y6305207D01*
X2723476Y6294793D01*
X2718142Y6279299D01*
X2707728Y6268885D01*
X2692234Y6263805D01*
X2676740Y6263805D01*
X2660992Y6268885D01*
X2655912Y6273965D01*
X2650578Y6284379D01*
X2336800Y3112515D02*
G01*
X2336800Y3034537D01*
X2341879Y3019044D01*
X2352293Y3008629D01*
X2368041Y3003550D01*
X2378456Y3003550D01*
X2393950Y3008629D01*
X2404363Y3019044D01*
X2409443Y3034537D01*
X2409443Y3112515D01*
X2495804Y3112515D02*
G01*
X2443734Y3039871D01*
X2521711Y3039871D01*
X2495804Y3112515D02*
G01*
X2495804Y3003550D01*
X2857500Y3125215D02*
G01*
X2857500Y3047237D01*
X2862579Y3031744D01*
X2872993Y3021329D01*
X2888741Y3016250D01*
X2899156Y3016250D01*
X2914650Y3021329D01*
X2925063Y3031744D01*
X2930143Y3047237D01*
X2930143Y3125215D01*
X3026918Y3125215D02*
G01*
X2974847Y3125215D01*
X2969768Y3078479D01*
X2974847Y3083560D01*
X2990595Y3088894D01*
X3006090Y3088894D01*
X3021584Y3083560D01*
X3031997Y3073400D01*
X3037331Y3057652D01*
X3037331Y3047237D01*
X3031997Y3031744D01*
X3021584Y3021329D01*
X3006090Y3016250D01*
X2990595Y3016250D01*
X2974847Y3021329D01*
X2969768Y3026410D01*
X2964434Y3036823D01*
G36*
X1717497Y9069730D02*
G01*
X1717497Y8919464D01*
X1732737Y8919464D01*
X1732737Y9069730D01*
G37*
G36*
X2212797Y9539630D02*
G01*
X2212797Y9389364D01*
X2228037Y9389364D01*
X2228037Y9539630D01*
G37*
G36*
X2708097Y9069730D02*
G01*
X2708097Y8919464D01*
X2723337Y8919464D01*
X2723337Y9069730D01*
G37*
G36*
X1425397Y8574430D02*
G01*
X1425397Y8424164D01*
X1440637Y8424164D01*
X1440637Y8574430D01*
G37*
G36*
X2200097Y8574430D02*
G01*
X2200097Y8424164D01*
X2215337Y8424164D01*
X2215337Y8574430D01*
G37*
G36*
X2962097Y8574430D02*
G01*
X2962097Y8424164D01*
X2977337Y8424164D01*
X2977337Y8574430D01*
G37*
X1908319Y2973260D02*
G01*
X1767319Y2973260D01*
X1767319Y2792539D02*
G01*
X1908319Y2792539D01*
X1923559Y2807779D02*
G01*
X1923559Y2958020D01*
X1546080Y2973260D02*
G01*
X1687080Y2973260D01*
X1687080Y2792539D02*
G01*
X1546080Y2792539D01*
X1530840Y2807779D02*
G01*
X1530840Y2958020D01*
X1286019Y2947860D02*
G01*
X1145019Y2947860D01*
X1145019Y2767139D02*
G01*
X1286019Y2767139D01*
X1301259Y2782379D02*
G01*
X1301259Y2932620D01*
X923780Y2947860D02*
G01*
X1064780Y2947860D01*
X1064780Y2767139D02*
G01*
X923780Y2767139D01*
X908540Y2782379D02*
G01*
X908540Y2932620D01*
D13*
X1438000Y1442897D02*
G01*
X1438000Y1892909D01*
X847999Y1892909D01*
X847999Y1442897D01*
X1438000Y1442897D01*
X1143000Y1442900D02*
G01*
X1143000Y1482900D01*
X2238100Y1455597D02*
G01*
X2238100Y1905609D01*
X1648099Y1905609D01*
X1648099Y1455597D01*
X2238100Y1455597D01*
X1943100Y1455600D02*
G01*
X1943100Y1495600D01*
X3038200Y1455597D02*
G01*
X3038200Y1905609D01*
X2448199Y1905609D01*
X2448199Y1455597D01*
X3038200Y1455597D01*
X2743200Y1455600D02*
G01*
X2743200Y1495600D01*
D14*
X1693100Y8914599D02*
G01*
X1693100Y8906588D01*
X1673100Y8886596D01*
X1177094Y8886596D01*
X1177094Y9097596D01*
X1672102Y9097596D01*
X1693100Y8914599D02*
G01*
X1693100Y9076593D01*
X1672102Y9097596D01*
X2188400Y9384499D02*
G01*
X2188400Y9376488D01*
X2168400Y9356496D01*
X1672394Y9356496D01*
X1672394Y9567496D01*
X2167402Y9567496D01*
X2188400Y9384499D02*
G01*
X2188400Y9546493D01*
X2167402Y9567496D01*
X2683700Y8914599D02*
G01*
X2683700Y8906588D01*
X2663700Y8886596D01*
X2167694Y8886596D01*
X2167694Y9097596D01*
X2662702Y9097596D01*
X2683700Y8914599D02*
G01*
X2683700Y9076593D01*
X2662702Y9097596D01*
X1401000Y8419299D02*
G01*
X1401000Y8411288D01*
X1381000Y8391296D01*
X884994Y8391296D01*
X884994Y8602296D01*
X1380002Y8602296D01*
X1401000Y8419299D02*
G01*
X1401000Y8581293D01*
X1380002Y8602296D01*
X2175700Y8419299D02*
G01*
X2175700Y8411288D01*
X2155700Y8391296D01*
X1659694Y8391296D01*
X1659694Y8602296D01*
X2154702Y8602296D01*
X2175700Y8419299D02*
G01*
X2175700Y8581293D01*
X2154702Y8602296D01*
X2937700Y8419299D02*
G01*
X2937700Y8411288D01*
X2917700Y8391296D01*
X2421694Y8391296D01*
X2421694Y8602296D01*
X2916702Y8602296D01*
X2937700Y8419299D02*
G01*
X2937700Y8581293D01*
X2916702Y8602296D01*
D10*
X1003300Y8064500D02*
G01*
X812800Y8064500D01*
X812800Y7810500D01*
X2336800Y7810500D01*
X2336800Y8064500D01*
D15*
X2336800Y8064500D02*
G01*
X1003300Y8064500D01*
D11*
X1215621Y6121620D02*
G01*
X1070378Y6121620D01*
X1070378Y6018458D01*
X1215621Y5816379D02*
G01*
X1070378Y5816379D01*
X1070378Y5919541D01*
X1215621Y6014539D02*
G01*
X1215621Y5923460D01*
X1241419Y6499590D02*
G01*
X1369913Y6499590D01*
X1369913Y6683009D01*
X1241419Y6683009D01*
X1146180Y6499590D02*
G01*
X1017686Y6499590D01*
X1017686Y6683009D01*
X1146180Y6683009D01*
X2054219Y7375890D02*
G01*
X2182713Y7375890D01*
X2182713Y7559309D01*
X2054219Y7559309D01*
X1958980Y7375890D02*
G01*
X1830486Y7375890D01*
X1830486Y7559309D01*
X1958980Y7559309D01*
X1304919Y7388590D02*
G01*
X1433413Y7388590D01*
X1433413Y7572009D01*
X1304919Y7572009D01*
X1209680Y7388590D02*
G01*
X1081186Y7388590D01*
X1081186Y7572009D01*
X1209680Y7572009D01*
X2016119Y6905990D02*
G01*
X2144613Y6905990D01*
X2144613Y7089409D01*
X2016119Y7089409D01*
X1920880Y6905990D02*
G01*
X1792386Y6905990D01*
X1792386Y7089409D01*
X1920880Y7089409D01*
X1266819Y6918690D02*
G01*
X1395313Y6918690D01*
X1395313Y7102109D01*
X1266819Y7102109D01*
X1171580Y6918690D02*
G01*
X1043086Y6918690D01*
X1043086Y7102109D01*
X1171580Y7102109D01*
X2727319Y6474190D02*
G01*
X2855813Y6474190D01*
X2855813Y6657609D01*
X2727319Y6657609D01*
X2632080Y6474190D02*
G01*
X2503586Y6474190D01*
X2503586Y6657609D01*
X2632080Y6657609D01*
X1431919Y2321290D02*
G01*
X1560413Y2321290D01*
X1560413Y2504709D01*
X1431919Y2504709D01*
X1336680Y2321290D02*
G01*
X1208186Y2321290D01*
X1208186Y2504709D01*
X1336680Y2504709D01*
X2409819Y2308590D02*
G01*
X2538313Y2308590D01*
X2538313Y2492009D01*
X2409819Y2492009D01*
X2314580Y2308590D02*
G01*
X2186086Y2308590D01*
X2186086Y2492009D01*
X2314580Y2492009D01*
X2790819Y7020290D02*
G01*
X2919313Y7020290D01*
X2919313Y7203709D01*
X2790819Y7203709D01*
X2695580Y7020290D02*
G01*
X2567086Y7020290D01*
X2567086Y7203709D01*
X2695580Y7203709D01*
D13*
X2940499Y7629702D02*
G01*
X2940499Y7879702D01*
X2500500Y7649702D02*
G01*
X2500500Y7879702D01*
X2500500Y7829702D02*
G01*
X2570500Y7829702D01*
X2570500Y7679702D01*
X2630500Y7679702D01*
X2630500Y7829702D01*
X2700500Y7829702D01*
X2700500Y7679702D01*
X2760499Y7679702D02*
G01*
X2760499Y7829702D01*
X2810499Y7829702D01*
X2810499Y7669702D01*
X2860499Y7669702D01*
X2860499Y7829702D01*
X2940499Y7829702D01*
X2654292Y5473700D02*
G01*
X1257292Y5473700D01*
X2654292Y3378200D02*
G01*
X1257292Y3378200D01*
D11*
X1504942Y5626100D02*
G01*
X2406642Y5626100D01*
X2406642Y4889500D01*
X1504942Y4889500D01*
X1504942Y5626100D01*
D13*
X1628010Y6182514D02*
G01*
X1628010Y6143320D01*
X1628010Y5922093D02*
G01*
X1628010Y5882512D01*
X1928012Y5882512D02*
G01*
X1928012Y5922093D01*
X1928012Y6143320D02*
G01*
X1928012Y6182514D01*
X1628010Y6182514D02*
G01*
X1667537Y6182514D01*
X1888611Y6182514D02*
G01*
X1928012Y6182514D01*
X1628010Y5882512D02*
G01*
X1667537Y5882512D01*
X1888764Y5882512D02*
G01*
X1928012Y5882512D01*
X2415410Y6182514D02*
G01*
X2415410Y6143320D01*
X2415410Y5922093D02*
G01*
X2415410Y5882512D01*
X2715412Y5882512D02*
G01*
X2715412Y5922093D01*
X2715412Y6143320D02*
G01*
X2715412Y6182514D01*
X2415410Y6182514D02*
G01*
X2454937Y6182514D01*
X2676011Y6182514D02*
G01*
X2715412Y6182514D01*
X2415410Y5882512D02*
G01*
X2454937Y5882512D01*
X2676164Y5882512D02*
G01*
X2715412Y5882512D01*
X2308781Y2824642D02*
G01*
X2228783Y2824642D01*
X2364826Y2824596D02*
G01*
X2444823Y2824596D01*
X2308781Y2966610D02*
G01*
X2228783Y2966610D01*
X2364826Y2966562D02*
G01*
X2444823Y2966562D01*
X2197808Y2855625D02*
G01*
X2197808Y2935630D01*
X2475801Y2935577D02*
G01*
X2475801Y2855574D01*
X2829481Y2837342D02*
G01*
X2749483Y2837342D01*
X2885526Y2837296D02*
G01*
X2965523Y2837296D01*
X2829481Y2979310D02*
G01*
X2749483Y2979310D01*
X2885526Y2979262D02*
G01*
X2965523Y2979262D01*
X2718508Y2868325D02*
G01*
X2718508Y2948330D01*
X2996501Y2948277D02*
G01*
X2996501Y2868274D01*
D11*
G75*
G01*
X1908320Y2792540D02*
G03*
X1923560Y2807780I0J15240D01*
G75*
G01*
X1923560Y2958020D02*
G03*
X1908320Y2973260I-15240J0D01*
G75*
G01*
X1546080Y2792540D02*
G02*
X1530840Y2807780I0J15240D01*
G75*
G01*
X1530840Y2958020D02*
G02*
X1546080Y2973260I15240J0D01*
G75*
G01*
X1286020Y2767140D02*
G03*
X1301260Y2782380I0J15240D01*
G75*
G01*
X1301260Y2932620D02*
G03*
X1286020Y2947860I-15240J0D01*
G75*
G01*
X923780Y2767140D02*
G02*
X908540Y2782380I0J15240D01*
G75*
G01*
X908540Y2932620D02*
G02*
X923780Y2947860I15240J0D01*
D13*
G75*
G01*
X2500376Y7649794D02*
G03*
X2940558Y7629728I224031J76399D01*
G75*
G01*
X2940558Y7879664D02*
G03*
X2500376Y7879664I-220091J-86101D01*
G75*
G01*
X2654292Y3378200D02*
G03*
X2844792Y3568700I0J190500D01*
G75*
G01*
X1066792Y3568700D02*
G03*
X1257292Y3378200I190500J0D01*
G75*
G01*
X2844792Y5283200D02*
G03*
X2654292Y5473700I-190500J0D01*
G75*
G01*
X1257292Y5473700D02*
G03*
X1066792Y5283200I0J-190500D01*
G75*
G01*
X2444819Y2966563D02*
G02*
X2475801Y2935577I0J-30983D01*
G75*
G01*
X2475801Y2855580D02*
G02*
X2444819Y2824597I-30982J0D01*
G75*
G01*
X2228789Y2824643D02*
G02*
X2197809Y2855625I3J30982D01*
G75*
G01*
X2197809Y2935623D02*
G02*
X2228789Y2966611I30983J5D01*
G75*
G01*
X2965519Y2979263D02*
G02*
X2996501Y2948277I0J-30983D01*
G75*
G01*
X2996501Y2868280D02*
G02*
X2965519Y2837297I-30982J0D01*
G75*
G01*
X2749489Y2837343D02*
G02*
X2718509Y2868325I3J30982D01*
G75*
G01*
X2718509Y2948323D02*
G02*
X2749489Y2979311I30983J5D01*
G75*
G01
X1654556Y5848020D02*
G03X1654556Y5848020I-5436J0D01*
G75*
G01
X2441956Y5848020D02*
G03X2441956Y5848020I-5436J0D01*
M02*
